<?xml version="1.0" standalone="no"?>
<!DOCTYPE svg PUBLIC "-//W3C//DTD SVG 20010904//EN"
 "http://www.w3.org/TR/2001/REC-SVG-20010904/DTD/svg10.dtd">
<svg version="1.0" xmlns="http://www.w3.org/2000/svg"
 width="140.000000pt" height="36.000000pt" viewBox="0 0 140.000000 36.000000"
 preserveAspectRatio="xMidYMid meet">
<metadata>
Created by potrace 1.15, written by Peter Selinger 2001-2017
</metadata>
<g transform="translate(0.000000,36.000000) scale(0.100000,-0.100000)"
fill="#000000" stroke="none">
<path d="M32 196 c3 -45 7 -88 7 -97 1 -9 12 -21 26 -27 29 -13 75 -16 75 -4
0 12 93 7 131 -7 23 -9 46 -11 65 -6 16 4 41 7 55 6 44 -4 59 30 59 126 0 80
-1 83 -23 83 -34 0 -56 -21 -59 -57 -2 -26 -5 -30 -19 -23 -20 11 -129 29
-126 21 1 -3 -4 -15 -10 -27 -7 -12 -14 -37 -16 -58 -5 -48 -12 -53 -32 -22
-23 34 -35 33 -35 -4 0 -20 -5 -30 -15 -30 -10 0 -15 10 -15 33 0 17 -3 56 -6
85 -6 44 -4 52 10 52 12 0 16 -10 16 -40 0 -46 11 -52 28 -15 12 25 32 34 32
14 0 -6 -5 -20 -11 -31 -9 -16 -7 -24 6 -37 16 -15 17 -15 7 5 -8 16 -7 26 4
42 8 12 12 22 7 22 -4 0 -1 4 7 10 11 7 8 11 -15 20 -15 6 -34 9 -42 6 -7 -3
-13 1 -13 9 0 9 -15 16 -37 20 -21 3 -45 7 -53 9 -13 2 -14 -9 -8 -78z"/>
<path d="M1268 243 c-8 -10 -21 -32 -29 -50 -8 -20 -16 -28 -21 -20 -4 6 -1
18 5 27 10 13 10 13 -3 3 -10 -8 -21 -9 -30 -3 -22 14 -94 12 -114 -3 -15 -11
-16 -18 -8 -33 7 -13 7 -26 1 -35 -18 -29 -9 -49 32 -69 22 -12 48 -19 57 -16
9 2 29 7 45 10 24 6 27 10 27 51 0 25 5 45 10 45 6 0 10 -15 10 -33 0 -37 25
-67 56 -67 51 0 88 66 44 77 -11 3 -20 9 -20 14 0 4 9 13 20 19 27 14 25 41
-5 74 -28 30 -56 33 -77 9z"/>
<path d="M930 221 c-14 -8 -104 -23 -140 -23 -8 0 -33 3 -55 7 -33 6 -43 3
-58 -13 -23 -26 -19 -53 11 -68 33 -16 41 -28 14 -21 -29 7 -51 -27 -24 -38
51 -21 79 -24 110 -14 24 8 36 8 47 -1 11 -9 22 -9 46 -1 18 6 45 11 60 11 15
0 30 4 34 10 3 5 12 7 20 4 25 -10 55 15 55 45 0 51 -19 88 -48 94 -15 3 -34
8 -42 11 -8 3 -22 2 -30 -3z"/>
<path d="M496 197 c-15 -11 -16 -18 -8 -33 7 -13 7 -26 1 -35 -18 -28 -9 -49
31 -69 38 -19 52 -20 113 -3 13 3 17 15 17 51 0 26 -4 54 -10 62 -6 9 -5 20 3
30 10 13 10 13 -3 3 -10 -8 -21 -9 -30 -3 -22 14 -94 12 -114 -3z"/>
</g>
</svg>
