 <svg version="1.0" xmlns="http://www.w3.org/2000/svg" width="700.000000pt" height="180.000000pt" viewBox="0 0 700.000000 180.000000" preserveAspectRatio="xMidYMid meet">
<metadata>
Created by potrace 1.12, written by Peter Selinger 2001-2015
</metadata>
<g transform="translate(0.000000,180.000000) scale(0.100000,-0.100000)" fill="#fff" stroke="none">
<path d="M287 1513 c-11 -18 9 -88 26 -91 18 -4 24 22 7 33 -5 3 -10 17 -10
30 0 24 -15 42 -23 28z"></path>
<path d="M180 1501 c0 -5 7 -25 16 -46 21 -51 42 -33 23 19 -11 32 -39 51 -39
27z"></path>
<path d="M2125 1498 c-9 -24 -2 -93 10 -93 14 0 19 85 6 98 -7 7 -12 5 -16 -5z"></path>
<path d="M6425 1498 c-9 -24 -2 -93 10 -93 14 0 19 85 6 98 -7 7 -12 5 -16 -5z"></path>
<path d="M1920 1462 c0 -31 33 -71 44 -53 7 11 -25 80 -36 81 -5 0 -8 -13 -8
-28z"></path>
<path d="M6316 1481 c-8 -13 9 -54 28 -70 28 -23 40 1 16 31 -11 15 -20 31
-20 37 0 13 -17 15 -24 2z"></path>
<path d="M2210 1448 c0 -13 -5 -29 -11 -35 -6 -6 -9 -17 -7 -23 3 -9 9 -8 21
4 19 19 23 61 7 71 -6 3 -10 -4 -10 -17z"></path>
<path d="M1816 1441 c-3 -4 10 -26 28 -47 26 -29 37 -36 46 -28 9 9 3 20 -24
48 -40 39 -42 40 -50 27z"></path>
<path d="M6762 1432 c-11 -9 -28 -22 -38 -28 -12 -7 -15 -16 -11 -29 7 -17 8
-17 30 2 12 11 30 23 40 26 18 7 23 32 8 41 -4 3 -18 -2 -29 -12z"></path>
<path d="M105 1401 c-9 -15 64 -46 77 -33 7 7 1 15 -20 26 -36 18 -48 20 -57
7z"></path>
<path d="M2286 1394 c-18 -17 -21 -40 -7 -49 5 -3 16 8 24 25 17 34 7 48 -17
24z"></path>
<path d="M6236 1402 c-10 -16 51 -65 71 -58 17 7 17 8 -2 21 -11 8 -24 18 -30
23 -22 18 -34 22 -39 14z"></path>
<path d="M275 1360 c-3 -5 -19 -10 -34 -10 -16 0 -45 -7 -65 -15 l-37 -16 5
-112 c4 -62 9 -168 12 -237 3 -69 9 -129 15 -134 5 -6 9 -46 9 -91 0 -56 5
-87 15 -101 9 -12 14 -42 15 -81 0 -34 5 -65 10 -68 6 -3 10 -24 10 -46 0 -26
4 -39 14 -39 7 0 47 -18 89 -40 41 -22 82 -40 91 -40 8 0 32 -9 53 -21 29 -16
41 -19 55 -10 10 6 38 11 62 11 25 0 48 5 51 10 3 6 17 10 29 10 34 0 50 23
34 49 -14 23 -4 41 14 23 7 -7 30 -12 53 -12 23 0 46 -5 52 -11 15 -15 197 4
209 22 3 5 17 9 31 9 17 0 27 7 30 21 5 20 7 19 37 -8 35 -33 99 -65 166 -83
25 -7 62 -21 83 -31 22 -10 52 -19 67 -19 16 0 32 -4 35 -10 3 -5 33 -10 65
-10 32 0 62 5 65 10 3 6 23 10 44 10 39 0 116 34 152 66 19 17 20 17 34 -3 11
-16 30 -23 72 -27 32 -3 84 -8 116 -12 47 -5 62 -3 78 12 10 9 19 22 19 29 0
7 9 20 20 30 11 10 20 24 20 30 0 7 7 18 15 25 7 6 25 35 40 63 l25 51 0 381
c0 357 -1 383 -18 398 -10 10 -28 17 -40 17 -11 0 -24 5 -27 10 -3 6 -39 10
-79 10 l-72 0 -44 -45 c-24 -25 -49 -45 -56 -45 -6 0 -19 -9 -29 -20 -10 -11
-24 -20 -31 -20 -10 0 -14 -29 -16 -122 l-3 -123 -27 0 c-32 0 -42 -9 -34 -31
5 -13 9 -14 21 -4 23 19 45 4 45 -29 0 -42 -14 -46 -43 -11 -14 16 -32 30 -41
30 -8 0 -18 5 -21 10 -3 6 -17 10 -30 10 -13 0 -27 5 -30 10 -3 6 -20 10 -36
10 -16 0 -47 11 -69 25 -22 14 -53 25 -69 25 -16 0 -33 5 -36 10 -3 6 -21 10
-40 10 -19 0 -37 5 -40 10 -3 6 -26 10 -50 10 -24 0 -47 -4 -50 -10 -3 -5 -19
-10 -36 -10 -16 0 -39 -6 -52 -12 -44 -25 -139 -124 -163 -170 -21 -42 -24
-60 -24 -163 0 -70 4 -115 10 -115 6 0 10 -10 10 -22 0 -21 -1 -21 -30 7 -16
16 -30 33 -30 39 0 6 -21 31 -46 57 -69 71 -74 85 -46 141 12 25 30 52 37 58
8 7 15 23 15 37 0 43 43 67 80 44 8 -6 18 -7 23 -4 13 8 -23 43 -45 43 -24 0
-23 30 2 75 11 20 20 41 20 48 0 14 -45 37 -71 37 -10 0 -21 5 -24 10 -3 6
-23 10 -44 10 -20 0 -42 5 -48 11 -16 16 -163 -4 -163 -22 0 -5 -4 -9 -10 -9
-6 0 -10 26 -10 59 0 49 -4 62 -21 74 -11 8 -29 12 -40 10 -11 -3 -27 1 -37 9
-19 16 -50 30 -103 47 -44 14 -156 15 -164 1z m120 -70 c58 -31 75 -36 75 -22
0 8 -49 32 -67 32 -7 0 -13 5 -13 10 0 6 9 10 20 10 11 0 20 -4 20 -10 0 -5
10 -10 23 -10 26 0 77 -21 77 -32 0 -5 -13 -8 -30 -8 -16 0 -30 -4 -30 -10 0
-17 -36 -11 -80 12 -33 18 -45 20 -60 10 -15 -9 -25 -8 -52 6 -28 14 -30 17
-13 20 10 3 21 -1 23 -7 5 -14 42 -15 42 -1 0 6 -6 10 -14 10 -8 0 -18 5 -21
10 -13 21 45 9 100 -20z m1710 20 c13 11 21 11 35 2 12 -7 21 -8 25 -2 3 6 11
10 17 10 6 0 -10 -22 -36 -50 -25 -27 -46 -54 -46 -60 0 -5 -7 -10 -15 -10
-23 0 -18 12 25 54 22 22 38 42 35 45 -3 2 -25 -14 -48 -37 -24 -23 -50 -42
-60 -42 -9 0 -17 -5 -17 -12 0 -6 -3 -8 -7 -4 -4 3 10 24 30 44 27 28 36 44
31 58 -4 15 -4 16 4 5 9 -13 13 -13 27 -1z m-45 -20 c0 -5 -7 -10 -16 -10 -9
0 -29 -14 -45 -31 -16 -17 -29 -27 -29 -23 0 4 14 23 32 41 31 32 58 43 58 23z
m-1795 -50 c20 -11 47 -20 60 -20 14 0 25 -4 25 -10 0 -5 9 -10 20 -10 11 0
20 -4 20 -10 0 -5 -6 -10 -14 -10 -8 0 -18 5 -21 10 -3 6 -19 10 -36 10 -16 0
-29 5 -29 10 0 6 -8 10 -17 10 -24 0 -83 23 -83 32 0 15 39 8 75 -12z m1945 7
c0 -7 -5 -18 -12 -25 -8 -8 -8 -15 2 -27 10 -12 10 -18 0 -30 -10 -12 -10 -19
-2 -27 21 -21 13 -44 -34 -91 -25 -26 -48 -47 -50 -47 -2 0 -4 10 -4 22 0 13
18 41 42 65 50 51 43 72 -7 23 -32 -31 -35 -32 -35 -12 0 12 -4 22 -10 22 -24
0 -6 39 42 87 54 54 68 63 68 40z m-1625 -26 c-3 -11 -1 -22 5 -26 5 -3 10
-43 10 -90 0 -46 5 -87 10 -90 6 -3 10 -37 10 -74 0 -37 4 -71 9 -76 5 -6 11
-21 13 -35 6 -46 27 -26 79 75 28 55 58 108 67 118 22 24 70 47 102 47 14 0
31 5 38 12 17 17 28 0 14 -22 -7 -11 -12 -26 -12 -35 0 -8 -9 -30 -20 -50 -11
-20 -20 -44 -20 -54 0 -10 -8 -25 -18 -34 -9 -8 -30 -41 -46 -72 l-30 -56 47
-47 c26 -26 47 -52 47 -58 0 -6 14 -23 30 -39 17 -16 30 -34 30 -40 0 -6 18
-29 40 -50 52 -50 55 -85 7 -85 -18 0 -38 -5 -44 -11 -6 -6 -23 -9 -39 -7 -23
2 -34 12 -50 46 -12 24 -34 56 -48 71 -14 15 -26 32 -26 37 0 6 -11 21 -25 34
-14 13 -25 29 -25 37 0 20 -35 16 -55 -7 -10 -11 -24 -20 -32 -20 -16 0 -19
-95 -3 -105 6 -3 10 -30 10 -60 0 -30 5 -57 11 -60 7 -5 4 -14 -7 -26 -13 -15
-31 -19 -81 -19 l-63 0 0 69 c0 39 -4 73 -10 76 -6 4 -10 60 -10 135 0 75 -4
131 -10 135 -5 3 -10 44 -10 90 0 46 -4 87 -10 90 -5 3 -10 29 -10 56 0 28 -4
58 -9 67 -5 9 -12 40 -16 68 -6 51 -6 52 26 68 18 9 45 16 60 16 15 0 31 5 34
10 12 19 37 11 30 -9z m-360 -11 c3 -5 19 -10 36 -10 16 0 29 -3 29 -7 0 -8
48 -33 63 -33 9 0 37 -25 37 -34 0 -12 -31 -5 -62 14 -18 11 -42 20 -52 20
-38 0 -86 24 -86 42 0 19 25 25 35 8z m1750 -40 c3 -5 18 -10 33 -10 20 0 30
-8 40 -27 15 -33 17 -239 2 -248 -6 -3 -10 -48 -10 -100 0 -52 4 -97 10 -100
6 -4 10 -57 10 -125 0 -68 -4 -121 -10 -125 -5 -3 -10 -24 -10 -46 0 -34 -3
-39 -23 -39 -13 0 -27 4 -33 9 -5 6 -29 11 -54 13 l-45 3 -3 114 c-2 77 1 118
9 127 9 11 9 18 1 26 -13 13 -18 519 -5 531 10 11 81 8 88 -3z m-1750 -20 c3
-5 21 -10 40 -10 19 0 37 -4 40 -10 3 -5 15 -10 26 -10 10 0 19 -4 19 -9 0 -5
10 -11 22 -14 12 -4 19 -9 15 -13 -4 -4 -18 -2 -31 5 -24 14 -56 12 -59 -3 -1
-4 18 -15 43 -23 90 -30 90 -64 -1 -37 -30 8 -71 20 -92 27 -42 12 -49 41 -10
42 31 0 34 19 3 23 -27 4 -50 19 -50 33 0 12 27 11 35 -1z m575 0 c0 -5 23
-10 50 -10 28 0 50 -4 50 -10 0 -5 -6 -10 -14 -10 -8 0 -16 -6 -19 -12 -4 -10
-7 -10 -18 0 -16 14 -49 16 -49 2 0 -5 -7 -10 -15 -10 -8 0 -15 5 -15 10 0 6
7 10 15 10 8 0 15 5 15 10 0 6 -7 10 -15 10 -8 0 -15 5 -15 10 0 6 7 10 15 10
8 0 15 -4 15 -10z m-78 -67 c15 -14 25 -43 15 -43 -14 0 -95 48 -90 54 12 12
57 6 75 -11z m-29 -45 c32 -15 35 -38 7 -45 -15 -4 -18 -9 -10 -18 14 -17 -7
-32 -22 -17 -8 8 -7 16 2 27 11 13 9 19 -10 40 -27 28 -12 34 33 13z m1517
-16 c0 -10 -22 -40 -50 -67 l-50 -49 0 29 c0 20 12 41 42 71 42 43 58 47 58
16z m-1915 -14 c22 -5 57 -12 78 -15 28 -4 37 -10 37 -24 0 -10 -4 -19 -10
-19 -5 0 -10 5 -10 10 0 6 -24 10 -53 10 -29 0 -57 4 -62 9 -6 5 -21 11 -35
13 -15 2 -26 11 -28 22 -3 16 0 18 19 12 13 -4 42 -12 64 -18z m1050 -8 c3 -5
22 -10 41 -10 27 0 34 -4 34 -20 0 -16 -7 -20 -30 -20 -16 0 -30 -4 -30 -10 0
-5 -11 -10 -25 -10 -14 0 -25 5 -25 10 0 6 11 10 25 10 14 0 25 5 25 10 0 6
-11 10 -24 10 -14 0 -28 5 -31 10 -9 14 -66 12 -98 -2 -35 -17 -34 -28 3 -28
17 0 30 5 30 10 0 6 7 10 15 10 8 0 15 -4 15 -10 0 -5 -7 -10 -15 -10 -8 0
-15 -4 -15 -10 0 -5 7 -10 15 -10 8 0 15 -4 15 -10 0 -5 -7 -10 -15 -10 -8 0
-15 -4 -15 -10 0 -15 58 -12 63 3 2 6 8 9 12 5 11 -11 -21 -38 -44 -38 -12 0
-30 -6 -41 -12 -16 -10 -24 -10 -40 0 -24 14 -90 16 -90 2 0 -5 15 -10 34 -10
19 0 38 -5 42 -11 4 -7 26 -10 58 -7 28 3 45 3 39 1 -7 -3 -13 -10 -13 -18 0
-7 -10 -19 -22 -28 l-23 -15 23 -9 c22 -8 22 -10 7 -23 -12 -10 -19 -10 -27
-2 -7 7 -22 12 -34 12 -13 0 -26 5 -29 10 -3 6 -14 10 -24 10 -21 0 -71 22
-71 33 0 4 11 7 25 7 14 0 25 5 25 10 0 6 -7 10 -15 10 -8 0 -15 9 -15 20 0
11 5 20 10 20 6 0 10 7 10 16 0 21 24 44 46 44 14 0 15 3 6 12 -18 18 -15 28
8 28 11 0 20 5 20 10 0 6 9 10 20 10 11 0 20 5 20 10 0 6 26 10 59 10 33 0 63
-4 66 -10z m110 0 c-3 -5 -10 -10 -16 -10 -5 0 -9 5 -9 10 0 6 7 10 16 10 8 0
12 -4 9 -10z m-1190 -40 c3 -5 30 -10 59 -10 50 0 106 -17 106 -32 0 -12 -88
-10 -95 2 -3 6 -28 10 -54 10 -43 0 -71 12 -71 32 0 12 48 10 55 -2z m1945
-20 c0 -11 -8 -23 -17 -27 -10 -3 -33 -20 -50 -36 -29 -27 -33 -28 -33 -12 0
21 67 93 88 94 6 1 12 -8 12 -19z m-507 -2 c38 -22 108 -92 123 -124 10 -21
14 -56 12 -110 l-3 -79 -35 -3 c-19 -2 -39 -8 -44 -13 -6 -5 -31 -9 -57 -9
-26 0 -51 -4 -54 -10 -3 -5 -26 -10 -50 -10 -24 0 -47 -4 -50 -10 -3 -5 -31
-10 -61 -10 -41 0 -56 -4 -61 -16 -9 -25 20 -66 63 -91 41 -23 128 -31 139
-13 3 6 16 10 28 10 11 0 33 12 48 26 36 35 69 27 98 -22 23 -38 22 -64 -2
-64 -8 0 -20 -7 -27 -15 -21 -25 -71 -45 -116 -45 -24 0 -46 -4 -49 -10 -8
-13 -132 -13 -140 0 -3 6 -14 10 -24 10 -24 0 -74 26 -96 49 -9 11 -28 41 -41
67 -22 43 -24 60 -24 174 0 114 2 131 24 174 42 82 107 136 165 136 14 0 33 5
41 10 22 14 166 12 193 -2z m-1473 -18 c0 -5 15 -10 34 -10 19 0 38 -4 41 -10
3 -5 33 -10 66 -10 54 0 59 -2 59 -22 0 -17 -3 -19 -12 -10 -7 7 -38 12 -69
12 -32 0 -61 5 -64 10 -3 6 -22 10 -41 10 -27 0 -34 4 -34 20 0 11 5 20 10 20
6 0 10 -4 10 -10z m450 -12 c0 -16 -3 -19 -11 -11 -6 6 -8 16 -5 22 11 17 16
13 16 -11z m1530 -36 c0 -4 -5 -13 -12 -20 -9 -9 -9 -15 0 -24 22 -22 12 -53
-33 -97 -25 -24 -48 -41 -52 -38 -9 10 16 56 51 94 16 18 26 36 22 40 -4 5
-21 -7 -37 -25 -31 -35 -39 -39 -39 -19 0 15 76 97 90 97 5 0 10 -4 10 -8z
m-1945 -12 c3 -5 28 -10 54 -10 26 0 63 -8 82 -17 l34 -18 -42 -3 c-23 -2 -51
2 -62 7 -11 6 -37 11 -58 11 -36 0 -63 14 -63 32 0 12 48 10 55 -2z m105 -69
c49 -5 55 -9 58 -31 2 -14 8 -31 14 -37 6 -7 7 -21 3 -30 -6 -16 -7 -17 -15
-2 -7 12 -32 18 -95 24 -47 4 -85 11 -85 16 0 5 8 9 18 10 9 0 42 1 72 2 86 3
77 22 -12 25 -49 2 -78 -1 -78 -8 0 -5 -5 -10 -11 -10 -8 0 -8 4 0 14 8 10 9
16 1 21 -22 13 3 25 38 19 20 -4 62 -10 92 -13z m725 -41 c3 -5 17 -10 30 -10
13 0 27 -5 31 -11 3 -6 19 -9 35 -7 20 3 29 0 29 -9 0 -7 5 -13 11 -13 8 0 7
-5 -2 -16 -10 -13 -10 -17 1 -24 8 -5 -3 -6 -28 -3 -53 7 -54 -7 -2 -30 44
-18 51 -36 20 -44 -11 -3 -20 -9 -20 -13 0 -4 9 -10 20 -13 15 -4 20 -14 20
-41 0 -38 -8 -44 -28 -24 -9 9 -15 9 -24 0 -7 -7 -20 -12 -31 -12 -14 0 -17 5
-12 20 5 16 2 20 -19 20 -14 0 -26 5 -26 10 0 6 11 10 25 10 14 0 25 5 25 10
0 6 -11 10 -24 10 -25 0 -54 26 -42 37 4 4 16 2 26 -5 22 -13 60 -16 60 -4 0
4 -21 14 -47 21 -27 7 -54 15 -61 17 -31 9 -2 29 46 32 29 2 52 7 52 13 0 5
14 9 30 9 17 0 30 5 30 10 0 6 -25 10 -55 10 -30 0 -55 -4 -55 -10 0 -5 -11
-10 -25 -10 -14 0 -25 5 -25 10 0 6 11 10 25 10 16 0 25 6 25 16 0 10 -7 14
-22 12 -15 -2 -24 3 -26 15 -4 18 22 24 33 7z m1115 -38 c0 -15 -83 -112 -96
-112 -12 0 -1 35 19 60 12 16 30 40 40 55 19 27 37 25 37 -3z m-1956 -1 c6 -9
44 -17 126 -28 25 -3 51 -10 58 -15 14 -12 16 -48 2 -48 -5 0 -10 5 -10 10 0
6 -20 10 -44 10 -25 0 -48 5 -51 10 -3 6 -20 10 -37 10 -33 0 -68 24 -68 47 0
15 16 18 24 4z m1956 -79 c0 -10 -18 -36 -40 -57 -22 -21 -40 -47 -40 -57 0
-10 -4 -18 -10 -18 -14 0 -12 43 3 72 17 32 59 77 75 77 6 1 12 -7 12 -17z
m-1905 -2 c3 -5 32 -10 64 -10 52 0 81 -11 81 -32 0 -12 -48 -10 -55 2 -3 6
-28 10 -56 10 -27 0 -49 5 -49 10 0 6 -9 10 -20 10 -11 0 -20 5 -20 10 0 6 11
10 24 10 14 0 28 -4 31 -10z m-15 -39 c0 -5 21 -11 48 -14 87 -10 112 -18 112
-37 0 -10 -6 -20 -12 -23 -10 -4 -10 -7 -1 -18 9 -9 10 -16 2 -26 -9 -10 -6
-15 12 -22 l24 -10 -22 0 c-13 -1 -23 4 -23 10 0 13 -50 8 -53 -6 -1 -5 12
-13 28 -16 24 -5 27 -7 12 -14 -10 -4 -26 -1 -41 8 -12 9 -38 17 -57 20 -32 4
-32 4 7 5 27 1 44 7 48 17 3 8 17 15 31 15 14 0 25 5 25 10 0 6 -22 10 -50 10
-27 0 -50 5 -50 10 0 6 -14 10 -31 10 -17 0 -28 4 -24 10 3 6 17 10 31 10 13
0 24 -4 24 -10 0 -5 23 -10 50 -10 28 0 50 5 50 10 0 6 -22 10 -50 10 -27 0
-50 5 -50 10 0 6 -18 10 -40 10 -33 0 -40 3 -40 20 0 13 7 20 20 20 11 0 20
-4 20 -9z m430 -21 c0 -5 9 -10 20 -10 11 0 20 -4 20 -10 0 -5 -7 -10 -15 -10
-8 0 -15 -4 -15 -10 0 -5 11 -10 25 -10 14 0 25 -4 25 -10 0 -14 -67 -13 -76
1 -3 6 -1 16 5 22 15 15 14 27 -4 27 -8 0 -15 5 -15 10 0 6 7 10 15 10 8 0 15
-4 15 -10z m1118 -42 c2 -29 -1 -48 -7 -48 -6 0 -11 6 -11 13 0 8 -9 22 -20
32 -11 10 -20 27 -20 37 0 15 6 19 28 16 25 -3 27 -7 30 -50z m365 26 c7 -7
-10 -39 -35 -68 -10 -11 -18 -25 -18 -31 0 -15 -48 -60 -56 -52 -10 10 33 94
51 100 8 4 20 18 25 32 9 24 21 31 33 19z m-507 -14 c8 0 14 -4 14 -10 0 -5
-18 -10 -40 -10 -33 0 -40 -3 -40 -20 0 -27 -12 -25 -38 5 l-21 24 27 -5 c19
-4 33 0 42 11 7 9 20 13 27 10 8 -3 21 -5 29 -5z m-1400 -65 c-8 -8 -18 -15
-22 -15 -3 0 -1 7 6 15 7 8 17 15 22 15 5 0 3 -7 -6 -15z m459 -5 c3 -5 20
-14 38 -19 29 -9 26 -10 -23 -8 -43 2 -56 6 -58 20 -4 19 32 25 43 7z m465 0
c0 -5 -9 -10 -20 -10 -11 0 -20 5 -20 10 0 6 9 10 20 10 11 0 20 -4 20 -10z
m20 -50 c0 -5 10 -10 22 -10 15 0 19 -3 12 -10 -7 -7 -21 -5 -42 6 -37 18 -40
24 -12 24 11 0 20 -4 20 -10z m-777 -42 c29 -14 36 -28 12 -28 -8 0 -15 5 -15
10 0 6 -13 10 -30 10 -16 0 -30 5 -30 10 0 14 31 13 63 -2z"></path>
<path d="M2140 1165 c-18 -19 -31 -38 -27 -42 8 -7 54 33 68 60 16 28 -5 19
-41 -18z"></path>
<path d="M1143 916 c-32 -15 -29 -26 7 -26 17 0 30 -4 30 -10 0 -5 14 -10 30
-10 17 0 30 5 30 10 0 6 -13 10 -30 10 -16 0 -30 5 -30 10 0 6 14 10 30 10 17
0 30 5 30 10 0 13 -69 11 -97 -4z"></path>
<path d="M1140 795 c0 -12 7 -15 25 -13 14 2 26 8 26 13 0 6 -12 11 -26 13
-18 2 -25 -1 -25 -13z"></path>
<path d="M1512 815 c-50 -27 -92 -78 -92 -110 0 -17 -5 -36 -12 -43 -18 -18
13 -25 74 -18 29 4 80 9 113 12 33 3 69 9 80 14 11 5 29 10 40 12 15 2 21 12
23 37 3 28 -3 40 -34 72 -37 38 -40 39 -104 38 -36 -1 -75 -7 -88 -14z m83
-45 c3 -5 21 -10 39 -10 19 0 39 -7 46 -15 11 -13 7 -15 -23 -15 -20 0 -52 9
-72 20 -20 11 -40 20 -45 20 -19 0 -10 -22 11 -27 20 -5 20 -6 -3 -19 -43 -25
-48 -26 -65 -18 -15 6 -14 8 7 12 36 5 46 19 20 27 l-22 7 23 13 c29 16 76 19
84 5z"></path>
<path d="M1180 530 c0 -5 7 -10 15 -10 8 0 15 5 15 10 0 6 -7 10 -15 10 -8 0
-15 -4 -15 -10z"></path>
<path d="M764 1353 c-3 -10 -10 -28 -14 -40 -6 -13 -6 -25 0 -28 14 -8 40 24
40 50 0 30 -18 42 -26 18z"></path>
<path d="M6795 1353 c-58 -30 -56 -58 2 -38 36 12 54 37 36 48 -4 3 -22 -2
-38 -10z"></path>
<path d="M1775 1340 c-3 -5 8 -16 24 -25 34 -17 50 -5 25 19 -17 18 -40 21
-49 6z"></path>
<path d="M846 1301 c-16 -17 -23 -31 -17 -35 12 -8 63 42 56 55 -8 12 -8 13
-39 -20z"></path>
<path d="M6411 1285 c-26 -25 -52 -45 -58 -45 -5 0 -23 -15 -41 -33 -28 -29
-32 -40 -32 -88 0 -50 -3 -58 -35 -89 -19 -19 -35 -38 -35 -44 0 -6 -14 -25
-32 -43 -24 -24 -29 -35 -20 -45 6 -8 12 -36 14 -63 l3 -50 53 -3 c47 -3 52
-5 52 -27 0 -13 -4 -27 -10 -30 -6 -4 -10 -53 -10 -115 0 -62 4 -111 10 -115
6 -3 10 -16 10 -29 0 -12 4 -26 8 -31 5 -6 15 -26 22 -45 15 -40 48 -80 65
-80 7 0 20 -9 30 -20 10 -11 31 -20 46 -20 15 0 31 -4 34 -10 3 -5 28 -10 55
-10 27 0 52 5 55 10 3 6 14 10 24 10 23 0 75 26 91 45 7 8 18 15 24 15 19 0
109 97 101 109 -11 18 -14 81 -4 87 14 8 11 48 -6 80 -14 27 -19 29 -92 34
l-78 5 -3 55 -2 55 40 19 c22 10 47 27 56 38 10 10 22 18 29 18 7 0 20 9 30
20 10 11 24 20 31 20 19 0 28 20 15 33 -6 6 -11 45 -11 87 0 61 -4 80 -17 91
-28 22 -61 39 -78 39 -12 0 -15 13 -15 58 l0 57 -48 23 c-26 12 -57 22 -69 22
-11 0 -41 11 -64 25 -62 35 -82 32 -138 -20z m100 -25 c16 0 29 -3 29 -6 0 -9
-71 -76 -102 -96 -15 -10 -35 -18 -45 -18 -12 0 -1 17 37 55 29 30 51 58 46
62 -4 4 -20 -7 -37 -25 -16 -18 -35 -32 -41 -32 -6 0 -19 -10 -29 -22 -11 -11
-22 -19 -25 -15 -8 8 62 77 79 77 8 0 22 9 33 21 10 11 20 16 22 10 2 -6 17
-11 33 -11z m71 -53 c-15 -12 -45 -40 -66 -64 -42 -46 -59 -52 -82 -29 -19 20
-18 26 5 26 11 0 46 27 78 59 53 55 59 58 75 44 16 -15 16 -17 -10 -36z m78 4
c0 -13 -123 -131 -137 -131 -24 0 -13 22 40 80 33 37 60 59 75 59 12 1 22 -3
22 -8z m30 -51 c0 -6 -8 -14 -17 -17 -25 -9 -47 -33 -39 -41 4 -3 11 0 16 7 5
8 15 11 26 7 15 -6 9 -15 -36 -61 -30 -30 -58 -55 -62 -55 -17 0 -6 26 24 57
24 25 29 36 20 42 -9 5 -4 16 18 39 30 32 50 41 50 22z m-298 -70 c29 -17 70
-38 90 -47 36 -17 37 -20 40 -73 l3 -55 60 -5 c57 -5 60 -6 63 -34 2 -16 -1
-33 -7 -39 -6 -6 -11 -19 -11 -29 0 -14 -8 -18 -38 -18 -21 0 -43 5 -49 11 -6
6 -21 9 -34 7 -24 -3 -24 -5 -26 -128 -3 -117 -1 -127 20 -150 12 -14 41 -34
65 -44 36 -17 42 -23 42 -51 0 -17 -4 -35 -9 -41 -6 -5 -11 -29 -13 -54 -3
-43 -4 -45 -37 -48 -18 -2 -38 1 -44 7 -6 6 -19 11 -29 11 -56 0 -158 104
-158 161 0 10 -4 21 -10 24 -6 4 -10 53 -10 115 0 62 4 111 10 115 6 3 10 22
10 40 0 28 -6 37 -30 50 -16 8 -38 15 -50 15 -17 0 -20 6 -20 49 l0 50 48 3
47 3 3 80 c2 78 7 105 16 105 3 0 29 -14 58 -30z m378 -32 c0 -7 -21 -34 -47
-60 -37 -38 -54 -48 -80 -48 -18 0 -33 3 -33 7 0 4 23 31 52 60 38 39 60 53
80 53 15 0 28 -5 28 -12z m10 -113 c-7 -8 -21 -15 -31 -15 -10 0 -23 -9 -29
-20 -9 -17 -8 -20 10 -20 11 0 25 9 32 20 16 25 28 26 28 2 0 -19 -27 -47 -68
-70 -29 -16 -40 -8 -24 18 9 16 9 24 0 39 -9 15 -8 22 5 35 8 9 22 16 30 16 8
0 22 9 33 21 17 18 19 19 22 5 2 -9 -2 -23 -8 -31z m-200 -217 c0 -11 -36 -28
-44 -21 -3 3 -6 16 -6 29 0 20 2 21 25 11 14 -7 25 -15 25 -19z m30 -42 c0
-13 -51 -46 -72 -46 -18 0 -7 36 15 46 32 16 57 16 57 0z m24 -65 c15 -16 15
-22 4 -40 -7 -12 -19 -21 -26 -21 -7 0 -23 -9 -35 -21 -19 -17 -22 -18 -25 -4
-4 19 15 45 33 45 6 0 20 9 30 20 16 18 16 20 2 20 -9 0 -32 -9 -52 -20 -32
-18 -35 -18 -35 -2 0 37 76 54 104 23z m96 -26 c0 -13 -50 -55 -65 -55 -8 0
-15 -4 -15 -10 0 -5 -13 -10 -30 -10 -16 0 -30 5 -30 10 0 6 9 10 20 10 11 0
20 5 20 10 0 6 7 10 15 10 9 0 25 9 37 20 20 19 48 27 48 15z m40 -57 c0 -13
-44 -38 -65 -38 -6 0 -17 -9 -25 -20 -8 -11 -19 -20 -24 -20 -14 0 55 70 79
80 28 12 35 12 35 -2z m-2 -65 c-2 -10 -23 -28 -47 -40 -24 -12 -47 -27 -52
-34 -6 -10 -10 -9 -15 4 -8 22 1 32 57 62 55 28 61 29 57 8z m-53 -103 c-42
-43 -85 -54 -85 -22 0 11 17 25 48 39 70 32 81 28 37 -17z"></path>
<path d="M940 1245 c-13 -14 -19 -25 -13 -25 20 0 73 32 68 41 -10 16 -31 10
-55 -16z"></path>
<path d="M6820 1234 c-29 -16 -33 -39 -6 -39 20 0 53 40 39 47 -4 3 -19 -1
-33 -8z"></path>
<path d="M3771 1226 c-15 -17 -19 -80 -6 -84 6 -1 12 8 13 20 2 13 8 27 13 33
12 12 12 45 0 45 -5 0 -14 -6 -20 -14z"></path>
<path d="M4912 1209 c-20 -18 -22 -39 -3 -39 14 0 51 41 46 51 -9 14 -19 11
-43 -12z"></path>
<path d="M3490 1170 c0 -22 5 -40 10 -40 6 0 10 18 10 40 0 22 -4 40 -10 40
-5 0 -10 -18 -10 -40z"></path>
<path d="M3340 1182 c0 -22 55 -78 64 -64 3 5 -3 20 -14 32 -11 13 -20 29 -20
37 0 7 -7 13 -15 13 -8 0 -15 -8 -15 -18z"></path>
<path d="M3838 1135 c-36 -42 -47 -65 -30 -65 12 0 82 74 82 87 0 26 -17 19
-52 -22z"></path>
<path d="M5039 1164 c-40 -21 -55 -42 -35 -50 9 -4 28 4 47 20 17 14 35 26 40
26 5 0 9 5 9 10 0 14 -30 11 -61 -6z"></path>
<path d="M1095 1150 c-11 -17 25 -84 37 -72 8 8 7 20 -2 42 -15 35 -26 45 -35
30z"></path>
<path d="M4023 1144 c-7 -19 27 -58 40 -45 12 12 0 48 -19 55 -8 3 -17 -1 -21
-10z"></path>
<path d="M4106 1152 c-8 -13 12 -49 31 -56 19 -8 15 15 -6 43 -11 15 -21 20
-25 13z"></path>
<path d="M1675 1115 c-14 -15 -23 -31 -20 -36 8 -12 8 -13 39 20 35 36 17 51
-19 16z"></path>
<path d="M4672 1125 c-13 -7 -41 -29 -61 -49 -36 -36 -82 -48 -96 -26 -3 6
-21 10 -40 10 -19 0 -37 5 -40 10 -16 25 -83 8 -132 -34 -19 -16 -27 -17 -48
-8 -36 17 -90 15 -105 -3 -7 -8 -27 -15 -46 -15 -18 0 -36 -4 -39 -10 -3 -5
-21 -10 -40 -10 -19 0 -37 -4 -40 -10 -3 -5 -21 -10 -40 -10 -19 0 -37 5 -40
10 -3 6 -21 10 -38 10 -18 0 -41 7 -51 15 -11 8 -32 15 -47 15 -15 0 -31 5
-34 10 -3 6 -16 10 -29 10 -13 0 -31 9 -41 20 -20 22 -98 29 -110 10 -3 -5
-20 -10 -37 -10 -51 0 -174 -106 -213 -183 -28 -58 -32 -101 -10 -143 22 -44
85 -94 120 -94 8 0 30 -9 50 -20 20 -11 44 -20 55 -20 10 0 22 -4 25 -10 3 -5
13 -10 21 -10 19 0 44 -24 44 -43 0 -21 -115 -30 -151 -11 -54 28 -79 15 -112
-57 -9 -20 -24 -42 -32 -49 -14 -12 -13 -16 7 -37 24 -25 73 -53 94 -53 7 0
29 -9 49 -20 20 -11 42 -20 50 -20 9 0 23 -4 33 -9 37 -19 90 -31 135 -31 25
0 49 -5 52 -10 8 -13 62 -13 70 0 3 6 26 10 50 10 24 0 47 5 50 10 3 6 16 10
29 10 12 0 38 17 60 39 l37 38 69 -34 c38 -19 74 -41 81 -49 6 -8 18 -14 27
-14 8 0 25 -12 38 -27 21 -24 25 -25 41 -12 35 28 63 39 97 39 19 0 38 5 41
10 3 6 22 10 41 10 33 0 45 12 24 25 -5 3 -10 17 -10 31 0 30 18 31 62 4 18
-11 43 -20 55 -20 12 0 25 -4 28 -10 8 -13 82 -13 90 0 3 6 26 10 50 10 24 0
47 5 50 10 3 6 16 10 29 10 28 0 56 29 56 58 0 22 24 30 35 12 3 -5 17 -10 30
-10 13 0 27 -4 30 -10 12 -19 91 -7 147 21 10 5 26 9 36 9 11 0 26 8 35 18 15
16 17 45 17 202 0 140 -3 187 -14 199 -7 9 -16 31 -20 50 -6 33 -6 33 27 28
84 -14 97 -21 120 -66 15 -30 35 -50 64 -66 l42 -22 -45 -44 c-54 -53 -74 -90
-74 -139 0 -20 -5 -41 -12 -48 -9 -9 -9 -15 0 -24 7 -7 12 -26 12 -44 0 -37
33 -74 88 -99 20 -10 87 -42 147 -71 97 -47 118 -54 172 -54 34 0 65 5 68 10
3 6 15 10 25 10 11 0 35 9 55 20 41 23 58 25 85 8 16 -10 24 -10 40 0 11 6 33
12 49 12 17 0 33 4 36 10 3 6 16 10 29 10 40 0 56 30 56 101 -1 36 -7 75 -15
89 -9 16 -14 54 -15 102 0 42 -4 80 -10 83 -5 3 -10 34 -10 69 0 47 -6 75 -26
115 -15 29 -34 55 -43 58 -9 4 -37 26 -63 50 -26 23 -56 43 -67 43 -11 0 -22
4 -25 9 -9 14 -81 23 -235 28 -93 2 -148 0 -154 -6 -6 -6 -24 -11 -39 -11 -16
0 -45 -10 -66 -23 -20 -13 -52 -30 -69 -38 -23 -10 -33 -21 -33 -36 0 -12 -4
-24 -9 -27 -8 -5 -60 9 -93 25 -10 5 -24 6 -31 3 -9 -3 -16 3 -20 15 -3 12
-16 25 -29 30 -12 5 -32 18 -42 30 -11 11 -31 21 -46 21 -15 0 -62 18 -105 40
-43 22 -86 40 -96 40 -10 0 -21 5 -24 10 -9 14 -115 11 -143 -5z m150 -45 c33
-20 33 -20 7 -20 -31 0 -82 24 -72 33 11 12 31 8 65 -13z m-98 -8 c12 -10 39
-24 61 -31 47 -16 67 -30 59 -42 -7 -12 -54 -12 -54 0 0 6 -27 23 -60 39 -46
22 -57 31 -48 40 16 16 18 15 42 -6z m-29 -52 c6 -4 29 -12 53 -20 23 -7 42
-19 42 -27 0 -18 -33 -30 -38 -15 -2 7 -12 12 -23 12 -10 0 -19 5 -19 11 0 7
-11 9 -27 6 -15 -3 -37 -1 -49 3 -20 8 -21 12 -11 33 10 22 14 23 37 14 14 -6
30 -14 35 -17z m215 14 c0 -10 -7 -14 -22 -12 -32 5 -35 28 -4 28 17 0 26 -5
26 -16z m-495 -24 c10 -11 23 -20 30 -20 6 0 22 -11 35 -25 24 -26 24 -26 3
-31 -12 -3 -24 -15 -27 -26 -4 -19 -9 -17 -45 21 -22 22 -47 41 -55 41 -9 0
-16 5 -16 10 0 20 33 9 60 -20 26 -28 60 -40 60 -22 0 13 -23 32 -38 32 -13 0
-25 9 -51 43 -12 15 -11 17 6 17 11 0 28 -9 38 -20z m-820 -10 c3 -5 19 -10
35 -10 28 0 46 -22 34 -41 -8 -13 -75 0 -96 18 -18 16 -49 14 -49 -2 0 -5 8
-11 18 -13 26 -4 63 -24 63 -34 0 -4 -20 -8 -45 -8 -25 0 -45 5 -45 10 0 6 -9
10 -20 10 -11 0 -20 -4 -20 -10 0 -5 9 -10 20 -10 11 0 20 -4 20 -10 0 -5 11
-10 23 -10 30 0 40 -10 26 -27 -17 -19 -84 -16 -129 7 -44 22 -60 25 -60 10 0
-5 4 -10 9 -10 6 0 27 -10 48 -22 21 -13 51 -23 68 -23 20 0 31 -6 33 -17 3
-15 -4 -18 -37 -18 -22 0 -43 5 -46 10 -9 15 -98 13 -93 -2 5 -13 43 -24 121
-35 31 -4 37 -9 37 -28 0 -33 -15 -39 -52 -21 -17 9 -43 16 -58 16 -15 0 -36
10 -50 25 -21 22 -22 29 -12 45 7 11 12 36 12 55 0 19 5 35 10 35 6 0 10 9 10
20 0 16 7 20 34 20 19 0 38 5 41 10 3 6 1 10 -4 10 -6 0 -11 5 -11 10 0 6 12
10 26 10 17 0 28 6 31 20 4 17 14 20 54 20 26 0 51 -4 54 -10z m938 -2 c28
-13 38 -48 14 -48 -8 0 -22 9 -32 20 -10 11 -26 20 -37 20 -10 0 -18 5 -18 10
0 14 41 13 73 -2z m1202 2 c-3 -5 -19 -10 -35 -10 -16 0 -32 5 -35 10 -4 6 10
10 35 10 25 0 39 -4 35 -10z m-2005 -20 c0 -5 -7 -10 -15 -10 -8 0 -15 5 -15
10 0 6 7 10 15 10 8 0 15 -4 15 -10z m448 -2 c9 -9 18 -8 38 3 21 11 28 11 31
2 3 -7 10 -13 17 -13 17 0 74 -29 82 -41 12 -19 -5 -22 -39 -5 -19 8 -40 22
-47 31 -7 8 -22 15 -34 14 -20 0 -20 -1 -3 -12 51 -33 52 -34 38 -50 -11 -14
-16 -14 -48 4 -28 16 -38 17 -49 8 -11 -9 -18 -9 -26 -1 -7 7 -18 12 -26 12
-18 0 -46 29 -37 38 4 4 10 1 12 -5 7 -20 40 -15 46 7 6 22 27 26 45 8z m921
-22 c18 -18 43 -55 57 -81 23 -46 24 -58 24 -230 0 -191 -3 -205 -46 -205 -13
0 -26 -4 -29 -10 -3 -5 -15 -10 -26 -10 -18 0 -19 8 -19 179 0 109 -4 182 -10
186 -5 3 -10 17 -10 30 0 38 -25 55 -84 55 -54 0 -80 -17 -113 -77 -16 -28
-18 -329 -3 -338 16 -10 12 -67 -7 -87 -11 -13 -30 -18 -68 -18 -28 0 -56 -5
-63 -12 -9 -9 -12 23 -12 145 0 98 -4 157 -10 157 -5 0 -10 11 -10 25 0 14 -6
35 -12 48 -27 48 -41 57 -82 57 -33 0 -47 -7 -78 -37 -21 -20 -38 -46 -38 -58
0 -12 -4 -25 -10 -31 -5 -5 -11 -86 -12 -179 l-3 -170 -40 -3 c-22 -1 -50 -8
-62 -14 -17 -8 -26 -8 -38 2 -12 10 -15 36 -15 129 0 79 -4 121 -12 129 -9 9
-12 46 -9 125 2 94 0 115 -13 126 -39 32 -3 81 59 81 22 0 46 5 52 11 18 18
43 3 43 -24 0 -30 26 -55 42 -39 5 5 15 21 22 33 13 28 100 77 137 78 15 1 53
-12 84 -29 59 -31 105 -39 105 -18 0 21 73 88 96 88 13 0 26 5 29 10 3 6 39
10 79 10 69 0 74 -2 105 -34z m536 24 c3 -5 26 -10 51 -10 24 0 44 -4 44 -10
0 -5 -24 -10 -54 -10 -30 0 -58 -4 -61 -10 -3 -5 -22 -10 -41 -10 -19 0 -34 5
-34 10 0 6 18 10 41 10 24 0 38 4 34 10 -3 6 -28 10 -56 10 -27 0 -49 -4 -49
-10 0 -5 -7 -10 -15 -10 -22 0 -18 14 8 26 28 15 124 17 132 4z m157 -2 c-9
-9 -15 -9 -24 0 -9 9 -7 12 12 12 19 0 21 -3 12 -12z m-1082 -18 c0 -5 7 -10
16 -10 8 0 22 -7 30 -15 14 -13 14 -16 0 -21 -9 -3 -26 5 -41 20 -27 27 -31
36 -15 36 6 0 10 -4 10 -10z m-790 -100 l0 -70 -72 0 c-85 0 -108 -15 -108
-69 0 -29 5 -38 27 -48 15 -7 35 -13 44 -13 10 0 21 -4 24 -10 3 -5 18 -10 33
-11 15 0 50 -13 77 -28 l50 -27 5 -69 c4 -39 12 -82 20 -98 12 -25 11 -29 -10
-52 -13 -14 -46 -36 -74 -50 -46 -23 -61 -25 -184 -25 -73 0 -132 3 -130 8 2
4 12 26 23 50 15 31 26 42 42 42 12 0 25 -4 28 -10 3 -5 33 -10 65 -10 32 0
62 5 65 10 3 6 17 10 31 10 16 0 24 6 24 17 0 9 7 25 17 35 15 17 14 20 -15
48 -18 17 -43 30 -56 30 -14 0 -28 5 -31 10 -3 6 -16 10 -27 10 -21 0 -66 13
-120 34 -16 6 -28 17 -28 24 0 7 -8 15 -17 19 -10 3 -30 17 -45 31 -62 57 -18
202 77 253 45 24 61 27 158 28 l107 1 0 -70z m180 30 c10 0 22 -4 25 -10 3 -5
13 -10 21 -10 20 0 49 -29 39 -38 -4 -4 -10 -1 -12 6 -3 6 -13 12 -24 12 -10
0 -19 5 -19 10 0 6 -15 10 -33 10 -44 0 -87 21 -87 42 0 16 3 16 35 -2 20 -11
44 -20 55 -20z m1893 28 c63 -36 97 -87 97 -149 0 -21 5 -41 10 -44 6 -4 10
-67 10 -155 0 -88 4 -151 10 -155 6 -3 10 -19 10 -36 0 -22 -5 -29 -19 -29
-11 0 -23 -4 -26 -10 -11 -19 -45 -10 -54 13 -5 13 -16 29 -25 37 -15 12 -23
8 -64 -31 -54 -51 -84 -69 -111 -69 -11 0 -23 -4 -26 -10 -3 -5 -37 -10 -74
-10 -71 0 -85 8 -118 67 -15 27 -17 149 -3 158 6 3 10 15 10 26 0 10 5 19 10
19 6 0 10 6 10 13 0 15 44 67 58 67 5 0 36 14 67 30 31 17 65 30 74 30 9 0 21
4 27 9 5 5 25 11 44 13 44 4 53 38 19 74 -29 31 -77 55 -85 43 -3 -5 -18 -9
-34 -9 -15 0 -54 -14 -85 -30 -63 -33 -85 -29 -85 16 0 12 -4 26 -10 29 -18
11 -11 45 9 45 11 0 23 5 26 10 3 6 17 10 30 10 13 0 27 5 30 10 3 6 17 10 30
10 13 0 27 5 30 10 9 15 181 13 208 -2z m-563 -18 c0 -5 18 -10 39 -10 22 0
43 -4 46 -10 3 -5 17 -10 31 -10 17 0 24 -5 24 -20 0 -13 -7 -20 -20 -20 -11
0 -20 5 -20 10 0 6 -13 10 -30 10 -16 0 -30 5 -30 10 0 6 -16 10 -36 10 -31 0
-64 18 -64 34 0 3 14 6 30 6 17 0 30 -4 30 -10z m-1385 -40 c3 -5 16 -10 28
-11 46 -2 154 -75 136 -93 -7 -8 -192 88 -197 102 -4 14 24 16 33 2z m1425
-20 c0 -5 14 -10 30 -10 17 0 30 -4 30 -10 0 -5 -13 -10 -30 -10 -16 0 -30 5
-30 10 0 6 -9 10 -21 10 -11 0 -17 5 -14 10 3 6 13 10 21 10 8 0 14 -4 14 -10z
m-1415 -37 c11 -7 48 -26 82 -43 66 -33 80 -45 63 -55 -8 -5 -7 -11 1 -21 9
-11 7 -15 -7 -21 -10 -4 -19 -2 -22 5 -2 7 -11 12 -21 12 -19 0 -127 56 -136
71 -11 17 21 9 78 -21 59 -30 97 -38 97 -20 0 6 -7 10 -15 10 -10 0 -132 57
-164 77 -2 1 0 10 3 20 4 10 10 13 14 8 4 -6 16 -15 27 -22z m911 -4 c3 -5 -2
-9 -11 -9 -25 0 -12 -25 16 -29 26 -3 41 -19 32 -34 -2 -4 -12 -2 -20 5 -8 7
-35 15 -59 18 -48 5 -59 22 -22 31 13 3 22 12 22 21 -1 16 31 14 42 -3z m619
1 c3 -5 -1 -10 -10 -10 -9 0 -13 5 -10 10 3 6 8 10 10 10 2 0 7 -4 10 -10z
m-1605 -100 c0 -33 -4 -60 -10 -60 -5 0 -25 9 -45 20 -20 11 -46 20 -59 20
-30 0 -86 31 -86 48 0 8 21 12 73 12 39 0 79 5 87 10 32 21 40 11 40 -50z
m1607 54 c-3 -3 -12 -4 -19 -1 -8 3 -5 6 6 6 11 1 17 -2 13 -5z m-604 -46 c29
-14 36 -28 13 -28 -29 0 -116 24 -116 32 0 12 73 10 103 -4z m567 3 c0 -6 -15
-11 -32 -13 l-33 -3 34 -17 c19 -10 39 -18 46 -18 17 0 65 -24 65 -32 0 -12
-68 -10 -75 2 -3 6 -14 10 -24 10 -28 0 -81 30 -81 46 0 8 9 14 19 14 11 0 23
5 26 10 8 13 55 13 55 1z m225 -1 c-3 -5 -15 -10 -25 -10 -10 0 -22 5 -25 10
-4 6 7 10 25 10 18 0 29 -4 25 -10z m-2330 -20 c3 -5 19 -10 34 -10 29 0 59
-24 43 -34 -9 -5 -112 41 -112 50 0 8 29 4 35 -6z m643 -10 c22 -11 47 -20 55
-20 7 0 25 -6 40 -12 32 -15 37 -48 7 -48 -11 0 -20 5 -20 10 0 6 -9 10 -20
10 -11 0 -20 5 -20 10 0 6 -9 10 -20 10 -11 0 -20 5 -20 10 0 6 -13 10 -30 10
-23 0 -30 4 -30 20 0 11 4 20 8 20 5 0 27 -9 50 -20z m467 10 c-3 -5 -10 -10
-16 -10 -5 0 -9 5 -9 10 0 6 7 10 16 10 8 0 12 -4 9 -10z m1035 0 c0 -5 -7
-10 -15 -10 -8 0 -15 5 -15 10 0 6 7 10 15 10 8 0 15 -4 15 -10z m110 -5 c0
-8 -4 -15 -9 -15 -5 0 -14 7 -21 15 -10 13 -9 15 9 15 12 0 21 -6 21 -15z
m-784 -14 c5 -6 29 -11 54 -13 59 -4 64 -31 6 -36 -37 -3 -106 21 -106 37 0
20 29 28 46 12z m714 -1 c0 -5 -7 -10 -15 -10 -8 0 -15 5 -15 10 0 6 7 10 15
10 8 0 15 -4 15 -10z m-1010 -30 c0 -24 -40 -27 -83 -7 -41 19 -33 27 28 27
48 0 55 -2 55 -20z m815 10 c3 -5 17 -10 30 -10 13 0 27 -4 30 -10 3 -5 14
-10 24 -10 21 0 71 -22 71 -32 0 -12 -48 -10 -55 2 -3 6 -19 10 -36 10 -16 0
-29 5 -29 10 0 6 -13 10 -30 10 -16 0 -30 -4 -30 -10 0 -5 13 -10 29 -10 17 0
33 -4 36 -10 3 -5 14 -10 24 -10 21 0 71 -22 71 -32 0 -5 -13 -8 -30 -8 -16 0
-30 5 -30 10 0 6 -13 10 -30 10 -16 0 -30 5 -30 10 0 6 -13 10 -30 10 -16 0
-30 -4 -30 -10 0 -5 14 -10 30 -10 17 0 30 -4 30 -10 0 -5 11 -10 25 -10 31 0
75 -27 75 -46 0 -8 -5 -14 -10 -14 -7 0 -7 -6 0 -20 9 -17 8 -20 -8 -20 -10 0
-23 5 -30 12 -9 9 -15 9 -24 0 -8 -8 -5 -14 13 -21 13 -5 32 -19 43 -31 15
-19 16 -24 5 -32 -11 -7 -11 -11 -1 -15 6 -2 12 -8 12 -13 0 -4 -11 -3 -25 3
-28 13 -33 27 -10 27 21 0 19 16 -2 23 -35 12 -107 57 -91 57 34 0 27 20 -14
39 -35 16 -40 21 -25 27 16 6 34 0 110 -38 18 -9 37 -3 37 11 0 8 -120 51
-144 51 -9 0 -16 8 -16 20 0 11 3 20 8 20 8 0 32 49 32 67 0 15 16 17 25 3z
m-1345 -20 c0 -5 9 -10 20 -10 11 0 20 -4 20 -10 0 -5 9 -10 20 -10 11 0 20
-4 20 -10 0 -5 9 -10 20 -10 11 0 20 -4 20 -10 0 -5 -13 -10 -30 -10 -16 0
-30 5 -30 10 0 6 -9 10 -20 10 -11 0 -20 -4 -20 -10 0 -5 9 -10 20 -10 11 0
20 -4 20 -10 0 -5 18 -10 40 -10 22 0 40 -4 40 -10 0 -5 -18 -10 -40 -10 -22
0 -40 5 -40 10 0 6 -18 10 -40 10 -33 0 -40 3 -40 19 0 11 6 21 12 23 7 3 0
11 -16 19 -42 20 -45 39 -7 39 17 0 31 -4 31 -10z m490 -27 c43 -7 60 -19 60
-44 0 -20 -24 -26 -35 -9 -3 6 -16 10 -29 10 -13 0 -31 9 -41 20 -10 11 -24
20 -32 20 -7 0 -13 5 -13 11 0 7 10 9 28 4 15 -3 43 -9 62 -12z m335 7 c3 -5
26 -10 51 -10 47 0 62 -14 50 -47 -5 -12 -9 -14 -18 -5 -7 7 -24 12 -38 12
-29 0 -90 27 -90 39 0 21 34 29 45 11z m-370 -60 c67 -22 95 -35 95 -42 0 -12
-48 -10 -55 2 -3 6 -24 10 -46 10 -51 0 -49 -23 2 -28 19 -2 38 -8 44 -13 5
-5 19 -9 32 -9 14 0 23 -6 23 -15 0 -17 -45 -21 -55 -5 -3 6 -23 10 -44 10
-49 0 -71 22 -52 52 9 15 10 23 2 31 -15 15 -14 30 2 24 6 -2 30 -10 52 -17z
m425 -20 c0 -5 -11 -10 -25 -10 -14 0 -25 5 -25 10 0 6 11 10 25 10 14 0 25
-4 25 -10z m-1210 -35 c19 -12 50 -28 68 -36 17 -8 32 -20 32 -26 0 -17 3 -18
-85 27 -76 39 -115 49 -115 30 0 -5 17 -17 38 -27 34 -16 35 -18 13 -21 -13
-2 -28 1 -34 7 -6 6 -21 11 -34 11 -28 0 -30 16 -3 30 11 6 20 17 20 25 0 20
53 9 100 -20z m390 15 c0 -5 10 -10 22 -10 25 0 58 -27 58 -47 0 -17 -4 -17
-42 7 -18 11 -43 20 -54 20 -23 0 -48 23 -37 33 10 11 53 8 53 -3z m850 -15
c-7 -8 -23 -15 -36 -15 -13 0 -24 -4 -24 -10 0 -5 -10 -10 -22 -10 -21 0 -20
2 8 19 18 11 42 21 55 24 13 2 26 5 28 6 2 0 -2 -6 -9 -14z m-1545 -15 c3 -5
17 -10 30 -10 13 0 27 -4 30 -10 3 -5 17 -10 30 -10 13 0 27 -4 30 -10 3 -5
17 -10 30 -10 l23 0 -22 -44 c-18 -38 -25 -44 -44 -39 -12 3 -29 0 -38 -7 -11
-10 -18 -10 -26 -2 -7 7 -20 12 -30 12 -10 0 -18 5 -18 10 0 6 -12 10 -28 10
-16 0 -32 8 -40 20 -7 12 -8 20 -2 20 5 0 10 -4 10 -10 0 -5 14 -10 30 -10 17
0 30 -4 30 -10 0 -5 9 -10 20 -10 11 0 20 -4 20 -10 0 -5 9 -10 20 -10 11 0
20 5 20 10 0 6 -9 10 -20 10 -11 0 -20 5 -20 10 0 6 -9 10 -20 10 -11 0 -20 5
-20 10 0 6 -11 10 -25 10 -14 0 -28 7 -32 15 -7 21 4 32 19 17 7 -7 18 -12 25
-12 7 0 41 -13 75 -30 67 -32 78 -35 78 -20 0 13 -136 80 -162 80 -10 0 -18 7
-18 15 0 17 35 21 45 5z m1955 -10 c0 -5 -9 -10 -21 -10 -11 0 -17 5 -14 10 3
6 13 10 21 10 8 0 14 -4 14 -10z m-1294 -8 c5 -5 28 -15 52 -22 53 -17 70 -35
55 -60 -9 -13 -9 -20 0 -29 9 -9 8 -14 -3 -22 -11 -8 -12 -12 -2 -16 6 -2 12
-8 12 -13 0 -4 -11 -3 -25 3 -28 13 -33 27 -10 27 8 0 15 5 15 11 0 7 -13 10
-34 7 -26 -3 -33 -1 -28 11 4 11 -2 13 -29 8 -19 -3 -28 -3 -21 0 19 7 14 20
-10 28 l-23 8 22 4 c12 2 41 -5 64 -16 48 -23 59 -25 59 -11 0 5 -27 22 -60
37 -33 14 -60 32 -60 40 0 15 11 17 26 5z m389 -22 c3 -5 21 -10 40 -10 19 0
37 -4 40 -10 3 -5 17 -10 31 -10 13 0 24 -4 24 -10 0 -13 -63 -13 -75 -1 -6 5
-26 11 -45 13 -24 2 -36 9 -38 21 -4 18 13 24 23 7z m515 -4 c0 -17 -27 -29
-36 -15 -3 6 -16 14 -28 19 -17 7 -13 9 22 9 29 1 42 -3 42 -13z m-1253 -12
c-3 -3 -12 -4 -19 -1 -8 3 -5 6 6 6 11 1 17 -2 13 -5z m798 -44 c3 -5 22 -10
41 -10 28 0 34 -4 34 -22 0 -17 -3 -19 -12 -10 -7 7 -19 12 -28 12 -21 0 -70
23 -70 33 0 11 28 9 35 -3z"></path>
<path d="M4650 1000 c0 -5 5 -10 11 -10 5 0 7 5 4 10 -3 6 -8 10 -11 10 -2 0
-4 -4 -4 -10z"></path>
<path d="M4130 940 c0 -5 9 -10 20 -10 11 0 20 5 20 10 0 6 -9 10 -20 10 -11
0 -20 -4 -20 -10z"></path>
<path d="M5905 610 c-3 -5 -14 -10 -24 -10 -57 0 -161 -102 -161 -158 0 -22
50 -72 72 -72 8 0 48 17 89 38 57 29 78 46 93 75 17 32 18 42 8 70 -7 19 -12
41 -12 50 0 12 -9 17 -29 17 -17 0 -33 -4 -36 -10z m8 -62 c33 -16 35 -28 3
-28 -14 0 -28 -4 -31 -10 -3 -5 -19 -10 -36 -10 -16 0 -29 -4 -29 -10 0 -5 -8
-10 -17 -10 -17 1 -17 1 0 14 9 7 17 19 17 25 0 9 10 10 31 6 28 -6 30 -5 24
14 -7 24 0 26 38 9z m2 -58 c3 -5 -1 -10 -9 -10 -9 0 -16 5 -16 10 0 6 4 10 9
10 6 0 13 -4 16 -10z"></path>
<path d="M3105 1086 c-21 -43 -11 -65 16 -40 20 18 26 59 10 69 -6 3 -17 -10
-26 -29z"></path>
<path d="M3916 1104 c-9 -8 -16 -22 -16 -29 0 -18 17 -28 25 -16 3 6 20 2 39
-10 20 -12 37 -16 40 -10 8 12 -21 41 -40 41 -11 0 -13 6 -9 20 8 25 -16 27
-39 4z"></path>
<path d="M6018 1083 c-20 -43 -14 -61 13 -37 18 16 27 74 12 74 -5 -1 -16 -17
-25 -37z"></path>
<path d="M1010 1092 c0 -15 52 -62 61 -56 6 4 -1 18 -17 35 -27 28 -44 37 -44
21z"></path>
<path d="M1765 1083 c-39 -14 -58 -30 -49 -44 5 -10 72 15 90 33 23 22 5 27
-41 11z"></path>
<path d="M2393 1084 c-3 -8 -1 -20 5 -26 15 -15 43 -2 36 16 -8 21 -34 28 -41
10z"></path>
<path d="M5303 1084 c-3 -8 -1 -20 5 -26 15 -15 43 -2 36 16 -8 21 -34 28 -41
10z"></path>
<path d="M3305 1070 c-3 -5 8 -16 24 -25 34 -17 50 -5 25 19 -17 18 -40 21
-49 6z"></path>
<path d="M2605 1050 c-3 -5 -21 -10 -39 -10 -17 0 -36 -4 -41 -9 -6 -5 -38
-23 -72 -41 -51 -26 -63 -37 -63 -56 0 -24 -23 -33 -35 -14 -3 6 -17 10 -30
10 -13 0 -27 5 -30 10 -10 17 -27 11 -23 -7 2 -12 17 -21 43 -26 22 -4 51 -10
65 -13 17 -4 34 -20 50 -51 17 -31 38 -53 67 -68 l42 -22 -50 -49 c-27 -26
-49 -53 -49 -58 0 -5 -7 -17 -16 -27 -11 -13 -15 -39 -15 -104 -1 -107 7 -118
131 -176 47 -23 117 -56 155 -75 57 -27 82 -34 132 -34 34 0 65 5 68 10 3 6
15 10 25 10 11 0 35 9 55 20 41 23 58 25 85 8 16 -10 24 -10 40 0 11 6 33 12
49 12 17 0 33 5 36 10 3 6 16 10 29 10 12 0 27 5 34 12 15 15 16 164 2 173 -5
3 -10 46 -10 95 0 49 -4 92 -10 95 -5 3 -10 34 -10 69 0 47 -6 75 -26 115 -15
29 -34 55 -43 58 -9 3 -34 23 -56 44 -41 39 -109 69 -157 69 -15 0 -30 5 -33
10 -4 6 -65 10 -150 10 -85 0 -146 -4 -150 -10z m220 -50 c-3 -5 -19 -10 -35
-10 -16 0 -32 5 -35 10 -4 6 10 10 35 10 25 0 39 -4 35 -10z m-100 -20 c3 -5
29 -10 56 -10 31 0 48 -4 44 -10 -3 -5 -33 -10 -66 -10 -33 0 -59 -4 -59 -10
0 -5 -16 -10 -35 -10 -19 0 -35 5 -35 10 0 6 16 10 35 10 19 0 35 5 35 10 0
14 -97 13 -102 -2 -3 -8 -11 -9 -24 -3 -18 8 -18 9 4 12 12 3 22 9 22 14 0 12
117 12 125 -1z m157 -2 c-9 -9 -15 -9 -24 0 -9 9 -7 12 12 12 19 0 21 -3 12
-12z m201 -60 c63 -36 97 -87 97 -149 0 -21 5 -41 10 -44 6 -4 10 -67 10 -155
0 -88 4 -151 10 -155 22 -14 10 -53 -22 -69 -42 -22 -57 -20 -67 7 -5 13 -16
29 -25 37 -15 12 -23 8 -64 -32 -26 -26 -65 -51 -87 -58 -22 -7 -48 -16 -57
-21 -10 -5 -44 -9 -76 -9 -61 0 -77 10 -109 67 -21 37 -16 137 9 191 24 53 55
92 74 92 15 0 98 42 102 53 2 4 16 7 31 7 15 0 31 4 37 9 5 5 25 11 44 13 44
4 53 38 19 74 -29 31 -77 55 -85 43 -3 -5 -18 -9 -34 -9 -15 0 -54 -14 -85
-30 -63 -33 -85 -29 -85 16 0 12 -4 26 -10 29 -32 20 14 65 66 65 13 0 26 5
29 10 3 6 17 10 30 10 13 0 27 5 30 10 9 15 181 13 208 -2z m-568 -18 c3 -5
24 -10 46 -10 21 0 39 -4 39 -10 0 -5 14 -10 30 -10 23 0 30 -4 30 -20 0 -13
-7 -20 -20 -20 -11 0 -20 5 -20 10 0 6 -13 10 -30 10 -16 0 -30 5 -30 10 0 6
-17 10 -38 10 -36 0 -62 14 -62 32 0 12 48 10 55 -2z m45 -60 c0 -5 14 -10 30
-10 17 0 30 -4 30 -10 0 -5 -13 -10 -30 -10 -16 0 -30 5 -30 10 0 6 -9 10 -21
10 -11 0 -17 5 -14 10 3 6 13 10 21 10 8 0 14 -4 14 -10z m115 -40 c3 -5 -1
-10 -9 -10 -9 0 -16 5 -16 10 0 6 4 10 9 10 6 0 13 -4 16 -10z m2 -46 c-3 -3
-12 -4 -19 -1 -8 3 -5 6 6 6 11 1 17 -2 13 -5z m-24 -46 c15 -7 27 -16 27 -20
0 -5 9 -8 20 -8 11 0 20 -4 20 -10 0 -5 -7 -10 -15 -10 -8 0 -15 -4 -15 -10 0
-5 7 -10 15 -10 8 0 15 -4 15 -10 0 -5 -15 -10 -34 -10 -19 0 -38 5 -41 10 -3
6 -14 10 -24 10 -28 0 -81 30 -81 46 0 20 23 18 65 -6 36 -20 75 -27 75 -12 0
11 -51 32 -77 32 -13 0 -23 5 -23 10 0 14 41 13 73 -2z m212 2 c-3 -5 -15 -10
-25 -10 -10 0 -22 5 -25 10 -4 6 7 10 25 10 18 0 29 -4 25 -10z m-80 -21 c4
-6 5 -12 2 -15 -7 -7 -37 7 -37 17 0 13 27 11 35 -2z m-265 -39 c0 -5 8 -10
17 -10 32 0 143 -41 143 -52 0 -5 -13 -8 -30 -8 -16 0 -30 5 -30 10 0 6 -13
10 -30 10 -16 0 -30 5 -30 10 0 6 -13 10 -30 10 -16 0 -30 -4 -30 -10 0 -5 14
-10 30 -10 17 0 30 -4 30 -10 0 -5 10 -10 23 -10 26 0 77 -21 77 -32 0 -5 -13
-8 -30 -8 -16 0 -30 5 -30 10 0 6 -13 10 -30 10 -16 0 -30 5 -30 10 0 6 -13
10 -30 10 -16 0 -30 -4 -30 -10 0 -5 14 -10 30 -10 17 0 30 -4 30 -10 0 -5 14
-10 30 -10 17 0 30 -4 30 -9 0 -5 9 -11 20 -14 11 -3 20 -12 20 -21 0 -20 -3
-20 -42 4 -18 11 -43 20 -55 20 -12 0 -25 5 -28 10 -3 6 -17 10 -31 10 -17 0
-24 5 -24 20 0 11 5 20 10 20 6 0 10 9 10 20 0 11 5 20 10 20 6 0 10 9 10 20
0 11 5 20 10 20 6 0 10 -4 10 -10z m7 -144 c15 -8 45 -22 65 -31 20 -8 40 -20
43 -25 9 -14 -29 -12 -43 2 -9 9 -15 9 -24 0 -9 -9 -7 -13 8 -18 10 -4 29 -16
41 -27 19 -17 21 -23 10 -35 -9 -12 -9 -16 1 -19 6 -3 12 -8 12 -13 0 -4 -11
-3 -25 3 -28 13 -33 27 -10 27 21 0 19 16 -2 24 -10 3 -47 21 -82 40 -48 27
-60 37 -47 42 10 4 22 0 29 -10 8 -10 17 -13 26 -7 11 7 4 14 -28 28 -23 11
-38 22 -35 26 11 11 30 8 61 -7z"></path>
<path d="M2995 611 c-3 -6 -17 -11 -31 -11 -44 0 -134 -68 -134 -101 0 -10 -4
-21 -10 -24 -17 -10 -11 -51 11 -79 20 -26 79 -38 79 -16 0 6 8 10 18 11 32 2
115 54 133 84 20 34 24 66 10 81 -5 5 -11 20 -13 34 -2 19 -10 26 -30 28 -14
2 -29 -2 -33 -7z m8 -63 c35 -17 34 -28 -3 -28 -16 0 -30 -4 -30 -10 0 -5 -13
-10 -29 -10 -16 0 -31 -5 -33 -11 -2 -6 -13 -9 -23 -6 -19 5 -19 5 3 12 12 4
22 13 22 21 0 10 9 12 31 7 29 -5 31 -4 24 16 -7 24 0 26 38 9z m2 -58 c3 -5
-1 -10 -9 -10 -9 0 -16 5 -16 10 0 6 4 10 9 10 6 0 13 -4 16 -10z"></path>
<path d="M3186 1031 c-15 -16 -26 -37 -24 -46 2 -14 10 -11 41 17 20 19 37 40
37 46 0 21 -25 13 -54 -17z"></path>
<path d="M5107 1054 c-11 -12 3 -24 29 -24 15 0 24 6 24 15 0 15 -40 21 -53 9z"></path>
<path d="M6096 1031 c-19 -20 -26 -36 -22 -47 6 -15 12 -12 46 21 38 37 43 55
16 55 -7 0 -25 -13 -40 -29z"></path>
<path d="M2315 1030 c-9 -15 63 -46 76 -33 8 8 1 15 -22 27 -37 19 -46 20 -54
6z"></path>
<path d="M5225 1030 c-9 -15 63 -46 76 -33 8 8 3 16 -19 27 -36 19 -48 20 -57
6z"></path>
<path d="M3247 933 c-10 -9 -9 -43 1 -43 14 0 43 36 35 43 -8 9 -28 9 -36 0z"></path>
</g>
</svg>
