 <svg version="1.0" xmlns="http://www.w3.org/2000/svg" width="700.000000pt" height="180.000000pt" viewBox="0 0 700.000000 180.000000" preserveAspectRatio="xMidYMid meet">
<metadata>
Created by potrace 1.12, written by Peter Selinger 2001-2015
</metadata>
<g transform="translate(0.000000,180.000000) scale(0.100000,-0.100000)" fill="#000000" stroke="none">
<path d="M1058 1682 c-8 -9 -14 -9 -24 -1 -9 7 -18 8 -26 2 -7 -5 -33 -16 -58
-23 -84 -26 -185 -79 -219 -114 -19 -20 -39 -36 -45 -36 -18 0 -66 -53 -66
-73 0 -16 5 -18 33 -12 17 4 36 11 42 16 12 12 62 11 70 -1 3 -5 14 -10 24
-10 21 0 80 -28 99 -47 7 -7 17 -13 22 -13 17 0 50 -44 77 -100 15 -30 32 -62
39 -70 7 -9 15 -38 17 -65 2 -28 7 -58 12 -68 4 -10 5 -33 2 -52 -3 -19 -1
-37 5 -41 5 -4 40 23 77 60 36 36 71 66 76 66 18 0 85 71 85 89 0 20 -30 51
-48 51 -16 0 -15 -10 4 -31 19 -22 7 -51 -34 -76 -15 -10 -49 -37 -76 -60 -50
-45 -66 -47 -66 -9 0 12 -3 26 -7 30 -4 3 -8 26 -9 50 -4 68 -74 199 -127 237
-59 44 -142 81 -194 87 -24 2 -42 8 -41 11 2 4 23 25 48 48 100 90 267 143
450 143 134 -1 282 -45 383 -115 108 -75 128 -91 147 -120 11 -17 36 -50 55
-75 59 -76 75 -103 91 -160 9 -30 22 -69 30 -87 20 -48 37 -235 25 -281 -6
-20 -9 -46 -8 -56 4 -40 -21 -24 -47 29 -50 101 -143 155 -269 155 -80 0 -128
-20 -175 -75 -43 -49 -43 -86 2 -131 58 -58 126 -38 160 46 15 38 18 40 57 40
36 0 48 -6 78 -38 33 -35 61 -103 61 -150 0 -9 -11 -40 -24 -69 -26 -55 -79
-93 -131 -93 -34 0 -114 41 -147 77 -29 31 -107 186 -125 248 -6 22 -23 77
-37 123 -35 113 -34 123 17 165 23 20 53 47 67 61 14 13 43 31 63 39 22 10 37
23 37 33 0 15 -2 15 -23 1 -13 -8 -37 -17 -53 -19 -16 -2 -30 -9 -30 -15 -1
-7 -2 -17 -3 -22 0 -5 -11 -13 -23 -16 -35 -11 -118 -96 -118 -122 0 -12 5
-25 10 -28 6 -3 10 -17 10 -30 0 -13 5 -27 10 -30 6 -3 10 -17 10 -29 0 -13 7
-29 15 -36 9 -8 13 -21 9 -37 -4 -15 0 -30 11 -43 10 -11 14 -26 11 -38 -5
-14 1 -24 19 -36 14 -9 25 -25 25 -34 0 -31 49 -122 84 -157 37 -37 124 -85
154 -85 11 0 45 12 76 26 46 21 59 32 75 68 10 24 23 46 28 49 12 7 5 108 -8
122 -5 5 -9 18 -9 30 0 12 -21 42 -48 68 -48 48 -49 48 -108 45 l-59 -3 -6
-42 c-6 -46 -38 -83 -72 -83 -28 0 -77 49 -77 77 0 24 49 75 96 99 31 16 170
19 179 4 3 -5 16 -10 29 -10 28 0 71 -31 113 -84 15 -18 43 -94 43 -118 0 -9
5 -20 10 -23 27 -17 75 66 58 99 -7 12 -6 22 1 29 13 13 15 196 2 216 -6 9 -6
22 1 34 7 15 5 24 -11 41 -12 12 -21 34 -21 49 0 41 -42 139 -76 176 -54 58
-94 109 -94 119 0 13 -47 62 -59 62 -5 0 -23 14 -41 30 -18 17 -36 30 -40 30
-5 0 -15 6 -22 13 -17 17 -77 47 -94 47 -7 0 -29 9 -49 20 -20 11 -48 20 -63
20 -16 0 -32 4 -37 9 -16 16 -275 18 -287 3z"></path>
<path d="M4435 1599 c-41 -37 -47 -82 -15 -119 12 -14 20 -37 20 -61 0 -44 2
-46 55 -51 l40 -3 3 39 c2 22 12 52 23 67 30 43 25 89 -14 127 -41 40 -67 40
-112 1z m97 -26 c36 -32 12 -103 -35 -103 -49 0 -75 64 -40 102 20 22 51 23
75 1z"></path>
<path d="M695 1383 c-59 -12 -101 -45 -121 -92 -20 -49 -17 -77 11 -106 30
-29 30 -29 74 -6 30 16 37 16 62 4 35 -17 37 -42 6 -71 -28 -27 -107 -31 -127
-7 -7 8 -19 15 -26 15 -18 0 -63 71 -61 96 3 26 -35 26 -39 0 -1 -11 -12 -32
-23 -47 -12 -15 -18 -34 -15 -42 3 -8 -2 -20 -11 -27 -13 -11 -16 -38 -14
-177 1 -90 5 -166 10 -169 5 -3 9 -13 9 -23 0 -10 7 -24 15 -31 8 -7 15 -21
15 -31 0 -10 9 -33 20 -51 11 -18 20 -42 20 -54 0 -11 9 -29 20 -39 11 -10 20
-23 20 -30 0 -7 9 -20 20 -30 11 -10 20 -23 20 -29 0 -15 112 -126 126 -126 6
0 19 -9 29 -20 10 -11 24 -20 30 -20 7 0 18 -7 25 -15 20 -25 183 -85 228 -85
12 0 24 -4 27 -10 4 -6 62 -10 140 -10 78 0 136 4 140 10 3 5 17 10 30 10 13
0 27 5 30 10 3 6 21 10 40 10 19 0 37 5 40 10 3 6 15 10 26 10 23 0 76 26 97
46 7 8 17 14 22 14 8 0 56 40 93 77 61 62 62 73 5 66 -24 -3 -47 -9 -52 -14
-14 -12 -123 -11 -131 1 -3 6 -21 10 -39 10 -24 0 -41 9 -66 35 -19 19 -39 35
-45 35 -14 0 -75 63 -75 78 0 6 -11 22 -24 35 -25 25 -56 78 -56 97 0 15 -41
102 -58 122 -9 10 -12 27 -8 41 4 16 0 29 -9 37 -8 7 -12 16 -9 21 9 15 -25
22 -41 9 -33 -28 -45 -72 -45 -170 0 -105 9 -125 60 -132 14 -2 25 -10 25 -18
0 -13 -25 -15 -168 -15 -118 0 -167 -3 -167 -11 0 -7 10 -14 23 -18 29 -7 246
-8 284 0 39 8 58 37 41 64 -7 11 -18 20 -24 20 -29 0 -44 37 -44 113 0 92 13
135 35 117 8 -7 15 -21 15 -31 0 -10 13 -47 29 -81 16 -35 36 -79 44 -100 9
-20 36 -63 61 -96 43 -56 61 -73 149 -143 41 -33 128 -53 206 -47 33 2 61 1
61 -2 0 -11 -64 -66 -114 -98 -26 -17 -74 -38 -105 -47 -31 -8 -85 -24 -121
-35 -71 -22 -220 -27 -274 -11 -17 6 -71 22 -121 36 -95 28 -223 103 -291 171
-56 57 -120 165 -168 284 l-46 114 0 137 c0 134 12 200 42 236 9 11 16 7 40
-22 40 -48 77 -65 143 -65 46 0 60 4 80 25 30 30 32 68 4 96 -18 18 -30 20
-87 17 l-67 -3 -3 30 c-6 70 79 140 140 114 40 -17 99 -91 111 -142 6 -23 12
-153 14 -289 l4 -247 -31 -22 c-37 -28 -38 -38 -2 -31 62 11 62 10 62 292 0
207 -3 260 -14 276 -8 10 -13 28 -10 39 3 14 -4 29 -20 45 -15 13 -26 29 -26
35 0 17 -89 90 -102 84 -2 -1 -12 -3 -23 -6z"></path>
<path d="M4427 1323 c-42 -22 -67 -70 -67 -129 0 -44 4 -54 33 -82 18 -18 38
-32 45 -32 7 0 21 -5 31 -12 16 -10 29 -8 70 12 28 13 58 34 66 46 32 49 9
178 -34 190 -9 3 -24 10 -33 15 -25 13 -78 9 -111 -8z m125 -60 c39 -37 38
-84 -2 -125 -26 -25 -36 -29 -63 -24 -39 7 -87 57 -87 90 0 13 13 38 29 55 38
41 83 42 123 4z"></path>
<path d="M1245 1280 c-7 -12 19 -14 162 -15 80 0 99 3 91 13 -13 15 -244 17
-253 2z"></path>
<path d="M2465 1208 c-3 -7 -4 -146 -3 -308 l3 -295 55 0 55 0 0 305 0 305
-53 3 c-36 2 -54 -1 -57 -10z m85 -44 c11 -28 12 -465 1 -504 -8 -31 -40 -38
-58 -14 -16 23 -19 494 -3 525 15 28 49 24 60 -7z"></path>
<path d="M4820 1165 c-22 -13 -26 -23 -30 -82 -5 -66 -6 -68 -35 -74 -31 -6
-27 -10 23 -25 9 -2 12 -41 12 -147 l0 -143 28 -27 c25 -24 36 -27 99 -27 58
0 72 3 77 18 3 9 11 25 18 34 10 14 10 20 1 29 -10 10 -17 9 -31 -4 -25 -23
-34 -22 -65 11 -27 28 -28 31 -25 143 l3 114 68 5 c87 6 87 25 -1 25 l-67 1
-5 79 c-4 71 -7 80 -25 82 -11 1 -31 -5 -45 -12z m48 -232 c3 -182 4 -187 29
-219 22 -29 23 -35 9 -40 -24 -9 -64 4 -75 25 -16 30 -17 407 -1 426 28 33 35
-4 38 -192z"></path>
<path d="M3584 1125 c-11 -23 -15 -49 -11 -75 3 -27 1 -43 -9 -51 -9 -7 -14
-32 -14 -70 0 -32 -4 -61 -10 -64 -5 -3 -10 -30 -10 -59 0 -28 -4 -56 -9 -62
-5 -5 -11 -39 -14 -76 l-5 -68 49 0 c44 0 50 3 64 30 8 16 15 55 15 88 0 32 4
62 9 67 13 14 19 156 6 152 -5 -2 -13 -30 -17 -63 -20 -180 -27 -217 -41 -231
-9 -9 -23 -13 -32 -9 -21 8 -19 28 25 291 6 39 15 93 19 121 8 57 24 84 52 84
28 0 45 -33 95 -184 46 -142 74 -196 74 -146 0 26 -22 95 -33 106 -4 4 -7 17
-7 29 0 13 -7 28 -15 35 -9 7 -13 21 -10 30 3 9 -2 23 -10 30 -9 8 -13 21 -9
32 3 10 0 26 -7 35 -7 8 -18 25 -24 37 -8 16 -21 22 -57 24 -45 3 -47 2 -64
-33z"></path>
<path d="M3967 1154 c-4 -4 -4 -17 -1 -29 3 -13 1 -26 -5 -29 -6 -4 -11 -18
-11 -30 0 -13 -6 -29 -14 -36 -8 -6 -12 -18 -9 -26 3 -8 -2 -23 -12 -34 -9
-10 -14 -24 -10 -30 4 -6 0 -19 -9 -29 -9 -10 -14 -25 -11 -33 3 -8 -1 -21
-10 -28 -8 -7 -15 -20 -15 -29 0 -9 -5 -22 -12 -29 -9 -9 -8 -12 5 -12 22 0
40 36 88 182 45 138 61 168 89 168 26 0 40 -30 52 -109 5 -36 14 -91 19 -121
43 -247 44 -259 24 -266 -9 -4 -23 0 -30 7 -14 14 -33 119 -42 232 -3 31 -9
57 -15 57 -17 0 10 -272 30 -308 11 -19 20 -23 55 -20 l42 3 3 54 c2 30 -2 59
-7 64 -6 6 -11 35 -11 63 0 29 -4 56 -10 59 -5 3 -10 30 -10 60 0 30 -4 57
-10 60 -5 3 -10 32 -10 64 0 31 -5 62 -12 69 -7 7 -13 22 -13 35 0 20 -6 22
-55 25 -31 2 -59 0 -63 -4z"></path>
<path d="M4404 1033 c-3 -10 -14 -37 -25 -61 -10 -23 -19 -47 -19 -53 0 -5 -9
-29 -20 -51 -11 -23 -20 -47 -20 -53 0 -6 -13 -37 -30 -70 -16 -33 -30 -66
-30 -74 0 -8 -6 -22 -13 -30 -8 -9 -19 -32 -26 -51 -7 -19 -18 -46 -23 -60 -6
-14 -14 -34 -18 -45 -27 -74 -39 -92 -67 -98 -38 -8 -74 -78 -55 -108 15 -23
16 -85 2 -94 -14 -9 -12 -25 3 -25 6 0 27 16 44 35 20 22 42 35 57 35 34 0 70
46 61 80 -15 61 -17 83 -7 103 5 12 16 42 23 67 7 25 25 72 41 104 15 33 28
65 28 72 0 8 9 29 20 49 11 20 20 44 20 55 0 10 4 21 9 25 13 7 41 64 41 81 0
7 9 29 20 49 11 20 20 42 20 50 0 9 6 24 13 36 10 17 9 22 -7 35 -26 18 -35
18 -42 -3z m-236 -695 c34 -34 -6 -90 -48 -68 -35 19 -20 80 20 80 9 0 21 -5
28 -12z"></path>
<path d="M4536 1031 c-11 -12 -14 -21 -7 -25 16 -10 44 -74 37 -84 -3 -6 1
-15 9 -22 8 -7 15 -21 15 -31 0 -10 5 -21 10 -24 6 -3 10 -13 10 -21 0 -8 9
-34 20 -56 11 -23 20 -48 20 -55 0 -7 9 -28 20 -48 11 -20 20 -44 20 -53 0
-10 4 -22 9 -28 5 -5 19 -36 31 -69 12 -33 29 -78 37 -100 13 -35 13 -43 -1
-73 -15 -30 -15 -36 0 -65 20 -38 31 -47 61 -47 14 0 34 -15 54 -40 32 -40 59
-52 59 -26 0 7 -7 19 -15 26 -20 16 -19 74 1 91 31 26 -16 109 -62 109 -24 0
-54 42 -54 74 0 9 -9 31 -20 51 -11 20 -20 42 -20 50 0 8 -9 30 -20 50 -11 20
-20 42 -20 50 0 16 -17 50 -39 77 -7 10 -11 24 -8 32 4 9 2 18 -3 21 -11 7
-40 64 -40 80 0 6 -9 30 -20 53 -11 22 -20 48 -20 57 0 18 -29 65 -40 65 -4 0
-15 -9 -24 -19z m342 -693 c18 -18 15 -43 -8 -63 -18 -17 -21 -17 -45 -1 -29
19 -31 33 -8 58 19 21 44 23 61 6z"></path>
<path d="M2071 985 c-58 -31 -78 -77 -82 -186 -1 -46 1 -93 6 -104 14 -35 58
-75 81 -75 13 0 26 -4 29 -10 9 -15 94 -12 144 6 45 15 81 46 81 69 0 7 7 18
15 25 26 22 16 30 -35 30 -48 0 -50 -1 -70 -40 -19 -37 -23 -40 -64 -40 -57 0
-78 23 -74 81 l3 44 123 3 122 3 0 48 c0 84 -34 141 -95 156 -73 18 -139 14
-184 -10z m211 -35 c32 -25 56 -103 38 -125 -7 -8 -24 -15 -37 -15 -23 0 -24
2 -18 40 5 31 2 48 -13 74 -29 48 -14 61 30 26z m-187 1 c3 -5 1 -12 -5 -16
-16 -10 -12 -81 5 -95 19 -16 19 -34 -1 -51 -16 -13 -16 -85 1 -122 6 -16 4
-18 -16 -15 -82 11 -96 205 -21 291 17 19 28 22 37 8z m122 -13 c19 -25 36
-79 27 -87 -5 -4 -38 -5 -74 -2 -62 6 -65 7 -68 34 -5 41 22 67 68 67 21 0 42
-6 47 -12z m87 -237 c3 -4 -5 -18 -18 -30 -28 -26 -42 -14 -20 17 16 23 29 28
38 13z"></path>
<path d="M2727 993 c-15 -8 -32 -25 -37 -38 -5 -13 -13 -25 -17 -28 -13 -8 -9
-232 3 -248 6 -8 14 -22 17 -31 7 -21 69 -48 109 -48 16 0 47 9 70 21 l41 21
17 -22 c13 -17 24 -21 59 -18 l44 3 1 202 1 203 -51 0 c-43 0 -53 -3 -57 -20
-3 -11 -9 -20 -15 -20 -5 0 -19 9 -32 20 -28 24 -110 26 -153 3z m73 -19 c0
-3 -9 -17 -20 -31 -17 -22 -20 -41 -20 -138 0 -97 3 -116 20 -138 24 -30 25
-37 5 -37 -32 0 -73 30 -84 61 -6 18 -11 72 -11 121 0 93 13 137 47 157 20 11
63 15 63 5z m205 -169 c0 -164 -1 -170 -21 -173 -11 -2 -28 6 -38 17 -16 17
-17 25 -6 68 21 87 22 120 5 173 -16 49 -16 52 1 71 10 11 27 19 38 17 20 -3
21 -9 21 -173z m-107 133 c7 -7 12 -22 12 -34 0 -12 6 -26 13 -32 16 -14 14
-89 -2 -105 -6 -6 -11 -26 -11 -43 0 -18 -7 -40 -16 -48 -18 -19 -75 -21 -92
-4 -17 17 -17 249 0 266 16 16 80 16 96 0z"></path>
<path d="M3216 994 c-52 -19 -76 -49 -76 -94 0 -45 20 -70 80 -100 25 -12 47
-26 50 -31 3 -4 18 -12 33 -18 33 -13 37 -49 7 -76 -16 -15 -31 -17 -85 -13
-59 5 -65 4 -65 -13 0 -10 13 -25 30 -34 33 -17 125 -20 135 -5 3 6 16 10 29
10 22 0 64 37 84 74 18 35 -29 97 -98 128 -46 21 -100 71 -100 92 0 7 5 17 12
24 15 15 124 16 133 2 9 -15 25 -2 25 20 0 44 -112 63 -194 34z m14 -54 c-5
-10 -10 -26 -10 -34 0 -25 58 -83 115 -116 54 -31 65 -45 65 -83 0 -26 -28
-57 -52 -57 -19 0 -24 15 -8 25 6 3 10 19 10 35 0 33 -46 75 -128 120 -45 24
-47 27 -47 70 0 37 4 46 24 57 31 15 44 8 31 -17z"></path>
<path d="M5252 955 c-13 -7 -39 -28 -58 -46 -31 -30 -34 -38 -34 -94 0 -58 2
-63 38 -95 54 -51 75 -60 137 -60 63 0 124 25 106 43 -7 7 -16 6 -29 -6 -22
-20 -91 -23 -125 -5 -12 6 -29 14 -37 18 -26 12 -49 64 -49 116 -1 43 3 54 27
75 61 55 129 66 172 29 21 -18 25 -19 38 -6 13 12 13 18 2 30 -16 20 -153 20
-188 1z"></path>
<path d="M3700 908 c13 -52 41 -141 51 -160 5 -10 9 -27 9 -37 0 -11 5 -23 10
-26 6 -3 10 -17 10 -30 0 -32 25 -55 60 -55 22 0 32 7 44 32 9 17 16 37 16 44
0 6 8 29 19 51 10 21 29 70 41 108 12 39 29 78 38 88 14 15 14 17 -1 17 -19 0
-47 -51 -70 -125 -26 -83 -65 -169 -81 -180 -24 -15 -33 1 -84 155 -26 79 -52
145 -59 147 -8 3 -9 -6 -3 -29z"></path>
<path d="M5499 843 c-43 -49 -50 -69 -37 -100 23 -55 58 -83 103 -83 34 0 47
6 78 38 30 31 37 45 37 78 0 27 -6 46 -17 55 -62 49 -126 54 -164 12z m114
-21 c33 -34 35 -72 5 -112 -25 -34 -61 -39 -90 -13 -13 11 -18 30 -18 66 0 85
51 114 103 59z"></path>
<path d="M5713 858 c-27 -13 -29 -23 -8 -32 11 -4 15 -22 15 -71 0 -49 -4 -67
-15 -71 -31 -12 -13 -24 35 -24 48 0 66 12 35 24 -18 7 -22 125 -4 143 7 7 5
15 -6 27 -19 18 -22 19 -52 4z"></path>
<path d="M5810 860 c0 -5 6 -10 13 -10 30 0 47 -35 47 -99 0 -54 -3 -64 -20
-68 -39 -10 -19 -23 35 -23 54 0 74 13 35 23 -17 4 -20 14 -20 70 0 36 5 69
10 72 16 10 11 19 -17 33 -32 14 -83 16 -83 2z"></path>
<path d="M5935 861 c-3 -5 7 -11 22 -13 28 -3 28 -4 33 -93 l5 -90 43 -3 c41
-3 57 10 27 22 -11 4 -15 22 -15 69 0 56 -3 66 -28 90 -28 27 -75 36 -87 18z"></path>
<path d="M5084 689 c-10 -17 13 -36 27 -22 12 12 4 33 -11 33 -5 0 -12 -5 -16
-11z"></path>
<path d="M5035 590 c-3 -5 -17 -10 -30 -10 -31 0 -42 -18 -13 -22 23 -3 23 -5
26 -161 l3 -157 -27 -10 c-40 -16 -22 -24 56 -25 49 -1 70 2 70 11 0 6 -9 14
-20 17 -15 4 -20 14 -20 41 0 20 2 36 5 36 3 0 30 -26 60 -57 46 -49 57 -56
72 -47 22 14 30 44 11 44 -8 0 -36 22 -63 50 l-49 50 29 30 c16 16 34 30 40
30 16 0 47 35 38 43 -16 17 -52 4 -88 -33 -21 -22 -43 -40 -47 -40 -4 0 -8 50
-8 110 0 102 -1 110 -19 110 -11 0 -23 -4 -26 -10z"></path>
<path d="M5505 590 c-11 -5 -29 -11 -40 -15 -19 -7 -19 -7 3 -16 21 -8 22 -12
22 -164 0 -133 -2 -157 -16 -162 -9 -3 -20 0 -24 7 -6 10 -14 10 -42 0 -29
-11 -39 -10 -66 4 -19 10 -32 24 -32 36 0 10 -4 22 -10 25 -27 16 -3 25 70 25
l80 0 0 37 c0 46 -41 93 -80 93 -68 0 -130 -70 -130 -145 0 -48 66 -108 125
-113 27 -2 52 2 61 9 11 9 18 9 26 1 7 -7 35 -12 63 -12 l50 0 -3 187 c-1 104
-5 194 -7 201 -5 14 -21 15 -50 2z m-105 -174 c6 -8 10 -25 8 -38 -3 -20 -10
-23 -50 -26 -47 -3 -48 -2 -48 25 0 16 5 34 12 41 17 17 63 15 78 -2z"></path>
<path d="M6706 524 c-9 -8 -16 -31 -16 -49 0 -19 -5 -37 -10 -40 -7 -4 -7 -12
0 -25 5 -10 10 -54 10 -98 0 -90 5 -98 65 -104 31 -2 40 1 43 14 2 12 -5 21
-20 27 -40 15 -49 35 -46 98 l3 58 38 5 c21 3 38 10 38 15 0 6 -17 12 -38 15
-33 4 -38 9 -41 34 -2 16 1 33 7 39 6 6 11 15 11 19 0 14 -28 9 -44 -8z"></path>
<path d="M2005 509 c-4 -6 2 -13 14 -16 20 -5 21 -12 21 -112 0 -70 -4 -111
-12 -119 -14 -14 -17 -14 90 -12 109 2 146 20 150 74 3 29 -2 44 -19 63 -20
20 -21 27 -11 43 16 27 15 55 -4 74 -12 13 -38 16 -119 16 -63 0 -106 -4 -110
-11z m196 -35 c23 -27 -1 -49 -60 -52 l-51 -3 0 35 0 36 49 0 c32 0 53 -5 62
-16z m4 -109 c31 -30 31 -33 -2 -67 -21 -22 -36 -28 -70 -28 l-43 0 0 60 0 60
45 0 c35 0 52 -6 70 -25z"></path>
<path d="M2665 503 c-38 -20 -45 -31 -45 -70 0 -40 37 -63 103 -63 60 0 107
-24 107 -56 0 -17 -6 -24 -19 -24 -11 0 -23 -4 -26 -10 -9 -14 -76 -12 -108 3
-15 6 -27 20 -27 30 0 9 -7 17 -15 17 -18 0 -21 -50 -3 -68 7 -7 44 -12 95
-12 72 0 84 3 95 20 7 11 21 20 31 20 15 0 18 7 15 42 -3 36 -8 44 -43 64 -25
15 -57 23 -85 24 -45 0 -70 13 -70 35 0 32 135 50 146 20 8 -19 34 -20 34 -1
0 8 -7 22 -16 30 -21 22 -128 21 -169 -1z"></path>
<path d="M3778 509 c-11 -6 -18 -22 -18 -39 0 -28 -2 -30 -40 -30 -44 0 -52
-16 -22 -43 23 -21 42 -22 42 -2 0 8 5 15 10 15 6 0 10 -24 10 -53 0 -74 16
-104 60 -110 45 -6 62 9 26 23 -26 9 -27 12 -24 72 3 61 4 63 33 68 40 7 38
24 -2 28 -29 3 -32 7 -35 39 -3 40 -14 48 -40 32z"></path>
<path d="M4280 485 c0 -8 9 -15 20 -15 13 0 20 -7 20 -20 0 -11 4 -28 9 -38
17 -34 51 -150 51 -176 0 -40 15 -31 29 17 7 23 17 50 22 59 12 23 11 28 -1
28 -5 0 -10 -8 -10 -17 -1 -27 -39 26 -40 53 0 12 -7 27 -15 34 -19 16 -19 44
0 60 23 19 8 30 -41 30 -32 0 -44 -4 -44 -15z"></path>
<path d="M4445 491 c-3 -5 -1 -12 5 -16 13 -8 13 -52 0 -60 -12 -7 -13 -35 -2
-35 11 0 32 46 32 69 0 11 9 21 21 24 12 3 18 10 14 16 -8 13 -62 15 -70 2z"></path>
<path d="M4568 483 c-31 -16 -40 -63 -13 -63 8 0 15 6 15 13 0 8 9 22 20 32
19 17 21 17 40 0 11 -10 20 -24 20 -31 0 -14 -54 -44 -81 -44 -21 0 -49 -47
-49 -83 0 -46 62 -75 90 -42 10 12 7 17 -14 26 -26 12 -42 41 -31 58 6 11 64
41 78 41 6 0 7 -20 4 -51 -8 -64 4 -89 43 -89 35 0 38 10 11 34 -17 15 -19 29
-17 97 3 95 -9 120 -57 118 -18 -1 -44 -8 -59 -16z"></path>
<path d="M5638 443 c-19 -9 -28 -22 -28 -38 0 -34 18 -40 32 -10 17 37 56 44
79 14 21 -28 16 -39 -16 -39 -13 0 -27 -4 -30 -10 -3 -5 -16 -10 -29 -10 -51
0 -78 -87 -38 -123 26 -24 68 -21 86 4 16 24 46 20 46 -6 0 -9 9 -15 23 -16
12 -1 56 -3 97 -5 69 -4 76 -2 102 23 21 20 28 36 28 63 0 46 -15 60 -61 60
-42 0 -62 18 -57 52 4 33 52 37 84 7 21 -20 24 -20 30 -5 11 28 -24 56 -70 56
-46 0 -96 -39 -96 -75 0 -32 50 -75 87 -75 44 0 59 -22 37 -55 -22 -34 -73
-32 -90 3 -15 30 -27 30 -34 0 -3 -13 -12 -23 -20 -23 -12 0 -16 19 -18 85 -3
76 -6 88 -29 112 -30 31 -70 35 -115 11z m100 -116 c4 -22 -38 -76 -59 -76
-37 -2 -52 54 -19 69 8 4 24 12 35 18 25 14 39 10 43 -11z"></path>
<path d="M6035 442 l-29 -15 22 -15 c20 -13 22 -23 22 -94 0 -71 -2 -80 -20
-85 -11 -3 -20 -11 -20 -17 0 -9 20 -13 60 -13 40 0 60 4 60 13 0 6 -9 14 -20
17 -18 4 -20 13 -20 74 1 76 14 103 52 103 39 0 48 -18 48 -101 0 -69 -2 -77
-21 -82 -41 -11 -9 -24 57 -23 69 1 82 10 42 30 -47 23 -26 164 25 174 34 7
46 -22 49 -113 l3 -88 85 2 c79 2 110 11 110 32 0 5 -11 9 -24 9 -28 0 -36 15
-29 53 4 20 11 27 27 27 12 0 28 6 35 13 10 10 12 3 10 -38 -4 -79 6 -101 47
-102 41 -1 53 12 24 27 -18 10 -20 21 -20 104 0 109 -11 126 -78 126 -31 0
-47 -6 -67 -25 -26 -27 -32 -49 -16 -60 6 -3 16 7 23 22 22 46 88 40 88 -8 0
-13 -7 -19 -22 -19 -26 0 -86 -34 -105 -59 -7 -9 -13 -31 -13 -49 0 -20 -4
-31 -10 -27 -5 3 -10 43 -10 88 0 74 -2 83 -27 109 -32 34 -68 36 -100 6 l-23
-21 -23 21 c-29 28 -78 29 -102 2 -10 -11 -21 -20 -25 -20 -4 0 -10 9 -13 20
-6 23 -11 23 -52 2z"></path>
<path d="M2327 402 c-41 -42 -44 -55 -22 -99 17 -34 47 -49 115 -58 38 -6 49
-3 64 14 20 22 14 43 -6 23 -16 -16 -91 -15 -106 0 -7 7 -12 20 -12 30 0 16
10 18 80 18 86 0 94 6 68 53 -29 50 -40 57 -93 57 -46 0 -55 -4 -88 -38z m117
-11 c25 -28 12 -41 -40 -41 -36 0 -44 3 -44 18 0 42 54 57 84 23z"></path>
<path d="M2895 422 l-29 -15 22 -15 c18 -12 22 -24 22 -64 0 -42 -3 -51 -20
-55 -40 -10 -13 -26 44 -27 64 -1 81 9 42 24 -23 8 -26 15 -26 55 0 25 6 54
13 66 10 17 9 22 -7 35 -23 16 -22 16 -61 -4z"></path>
<path d="M2997 434 c-11 -12 3 -24 27 -24 32 0 43 -16 51 -77 7 -51 6 -53 -20
-63 -40 -15 -23 -25 41 -24 57 1 84 17 44 27 -17 4 -20 13 -20 55 0 56 17 82
54 82 36 0 46 -19 46 -91 l0 -67 46 -4 c29 -2 49 1 56 9 6 8 15 10 22 5 17
-14 75 -22 81 -12 3 5 -7 15 -22 22 -37 18 -44 58 -11 58 13 0 29 5 35 11 7 7
19 9 27 6 19 -7 21 -38 4 -55 -9 -9 -9 -15 2 -26 17 -17 228 -26 232 -10 2 5
-10 10 -26 12 l-29 4 5 74 c6 91 -4 105 -57 80 -34 -17 -39 -36 -9 -36 12 0
14 -12 12 -57 l-3 -58 -35 0 -35 0 -3 65 c-4 84 -18 100 -87 100 -38 0 -56 -5
-69 -19 -19 -21 -9 -35 14 -20 22 13 76 11 89 -4 14 -18 4 -27 -31 -27 -50 0
-108 -41 -108 -77 0 -28 -21 -30 -44 -4 -15 16 -15 22 -5 39 11 17 10 26 -1
49 -33 65 -65 77 -137 51 -27 -10 -38 -10 -53 0 -21 13 -72 16 -83 6z"></path>
<path d="M4342 160 c-7 -11 -21 -20 -32 -20 -24 0 -27 -28 -4 -37 17 -6 74 42
74 64 0 20 -24 16 -38 -7z"></path>
</g>
</svg>